
<svg xmlns="http://www.w3.org/2000/svg" xml:space="preserve" width="202px" height="202px" version="1.1" style="shape-rendering:geometricPrecision; text-rendering:geometricPrecision; image-rendering:optimizeQuality; fill-rule:evenodd; clip-rule:evenodd"
viewBox="0 0 213.497 213.28"
 xmlns:xlink="http://www.w3.org/1999/xlink"
 xmlns:xodm="http://www.corel.com/coreldraw/odm/2003">
 <defs>
  <style type="text/css">
   <![CDATA[
    .fil0 {fill:none}
    .fil1 {fill:#000000}
    .fil3 {fill:#000000}
    .fil2 {fill:#000000;fill-rule:nonzero}
   ]]>
  </style>
 </defs>
 <g id="Layer_x0020_1">
  <metadata id="CorelCorpID_0Corel-Layer"/>
  <g id="_1515329221216">
   <circle class="fil0" transform="matrix(0.233734 -0.0846007 0.0846007 0.233734 106.84 106.725)" r="320.811"/>
   <g>
    <g>
     <polygon class="fil1" points="77.882,28.871 79.153,28.424 77.738,24.171 76.467,24.619 "/>
     <path id="_1" class="fil2" d="M79.047 28.123l0.41 0.199 -0.198 0.402 -1.271 0.448 -0.212 -0.601 1.271 -0.448zm0.41 0.199l0.099 0.297 -0.297 0.105 0.198 -0.402zm-2.024 -4.049l0.199 -0.402 0.41 0.199 1.415 4.252 -0.609 0.203 -1.415 -4.252zm0.199 -0.402l0.308 -0.108 0.102 0.307 -0.41 -0.199zm-1.059 1.048l-0.411 -0.199 0.199 -0.402 1.271 -0.447 0.212 0.601 -1.271 0.447zm-0.411 -0.199l-0.099 -0.297 0.298 -0.105 -0.199 0.402zm2.024 4.05l-0.198 0.402 -0.411 -0.199 -1.415 -4.253 0.609 -0.203 1.415 4.253zm-0.198 0.402l-0.308 0.108 -0.103 -0.307 0.411 0.199z"/>
    </g>
    <g>
     <polygon class="fil1" points="64.791,35.072 65.966,34.412 63.839,30.467 62.664,31.127 "/>
     <path id="_1_0" class="fil2" d="M65.811 34.134l0.438 0.125 -0.127 0.43 -1.175 0.66 -0.311 -0.555 1.175 -0.66zm0.438 0.125l0.148 0.276 -0.275 0.154 0.127 -0.43zm-2.692 -3.64l0.126 -0.43 0.439 0.126 2.127 3.944 -0.565 0.305 -2.127 -3.945zm0.126 -0.43l0.285 -0.159 0.154 0.285 -0.439 -0.126zm-0.863 1.216l-0.438 -0.126 0.126 -0.43 1.175 -0.66 0.312 0.556 -1.175 0.66zm-0.438 -0.126l-0.149 -0.275 0.275 -0.155 -0.126 0.43zm2.692 3.64l-0.127 0.43 -0.438 -0.125 -2.127 -3.945 0.565 -0.304 2.127 3.944zm-0.127 0.43l-0.284 0.16 -0.154 -0.285 0.438 0.125z"/>
    </g>
    <g>
     <polygon class="fil1" points="52.986,43.453 54.028,42.597 51.243,39.086 50.202,39.941 "/>
     <path id="_1_1" class="fil2" d="M53.825 42.351l0.454 0.047 -0.049 0.445 -1.042 0.856 -0.404 -0.492 1.041 -0.856zm0.454 0.047l0.194 0.245 -0.243 0.2 0.049 -0.445zm-3.287 -3.113l0.049 -0.445 0.453 0.046 2.785 3.512 -0.503 0.399 -2.784 -3.512zm0.049 -0.445l0.252 -0.207 0.201 0.253 -0.453 -0.046zm-0.637 1.347l-0.453 -0.047 0.049 -0.445 1.041 -0.855 0.404 0.492 -1.041 0.855zm-0.453 -0.047l-0.195 -0.245 0.244 -0.2 -0.049 0.445zm3.286 3.114l-0.049 0.445 -0.453 -0.047 -2.784 -3.512 0.502 -0.398 2.784 3.512zm-0.049 0.445l-0.252 0.207 -0.201 -0.254 0.453 0.047z"/>
    </g>
    <g>
     <polygon class="fil1" points="42.827,53.769 43.703,52.745 40.348,49.773 39.472,50.797 "/>
     <path id="_1_2" class="fil2" d="M43.461 52.538l0.454 -0.033 0.03 0.447 -0.876 1.024 -0.485 -0.414 0.877 -1.024zm0.454 -0.033l0.235 0.208 -0.205 0.239 -0.03 -0.447zm-3.779 -2.492l-0.03 -0.447 0.455 -0.033 3.354 2.972 -0.425 0.48 -3.354 -2.972zm-0.03 -0.447l0.213 -0.248 0.242 0.215 -0.455 0.033zm-0.392 1.438l-0.454 0.033 -0.03 -0.447 0.876 -1.024 0.485 0.414 -0.877 1.024zm-0.454 0.033l-0.235 -0.208 0.205 -0.239 0.03 0.447zm3.779 2.492l0.03 0.447 -0.455 0.033 -3.354 -2.972 0.425 -0.48 3.354 2.972zm0.03 0.447l-0.213 0.248 -0.242 -0.215 0.455 -0.033z"/>
    </g>
    <g>
     <polygon class="fil1" points="34.613,65.697 35.298,64.537 31.48,62.19 30.794,63.351 "/>
     <path id="_1_3" class="fil2" d="M35.024 64.375l0.442 -0.112 0.107 0.435 -0.686 1.161 -0.548 -0.324 0.685 -1.16zm0.442 -0.112l0.267 0.164 -0.16 0.271 -0.107 -0.435zm-4.154 -1.799l-0.106 -0.435 0.441 -0.112 3.819 2.346 -0.335 0.547 -3.819 -2.346zm-0.106 -0.435l0.165 -0.281 0.276 0.169 -0.441 0.112zm-0.138 1.484l-0.442 0.111 -0.106 -0.435 0.686 -1.16 0.548 0.323 -0.686 1.161zm-0.442 0.111l-0.266 -0.164 0.16 -0.271 0.106 0.435zm4.155 1.8l0.106 0.435 -0.442 0.111 -3.819 -2.346 0.336 -0.546 3.819 2.346zm0.106 0.435l-0.166 0.281 -0.276 -0.17 0.442 -0.111z"/>
    </g>
    <g>
     <polygon class="fil1" points="28.583,78.866 29.058,77.605 24.892,75.953 24.417,77.215 "/>
     <path id="_1_4" class="fil2" d="M28.76 77.493l0.417 -0.187 0.179 0.411 -0.475 1.261 -0.596 -0.224 0.475 -1.261zm0.417 -0.187l0.29 0.116 -0.111 0.295 -0.179 -0.411zm-4.403 -1.054l-0.18 -0.411 0.416 -0.186 4.167 1.651 -0.237 0.597 -4.166 -1.651zm-0.18 -0.411l0.115 -0.306 0.301 0.12 -0.416 0.186zm0.121 1.486l-0.416 0.186 -0.18 -0.411 0.475 -1.261 0.596 0.225 -0.475 1.261zm-0.416 0.186l-0.291 -0.115 0.111 -0.296 0.18 0.411zm4.403 1.055l0.179 0.41 -0.416 0.186 -4.166 -1.651 0.237 -0.597 4.166 1.652zm0.179 0.41l-0.115 0.306 -0.301 -0.12 0.416 -0.186z"/>
    </g>
    <g>
     <polygon class="fil1" points="24.922,92.878 25.171,91.553 20.782,90.649 20.533,91.973 "/>
     <path id="_1_5" class="fil2" d="M24.858 91.494l0.378 -0.255 0.248 0.373 -0.249 1.325 -0.626 -0.118 0.249 -1.325zm0.378 -0.255l0.306 0.063 -0.058 0.31 -0.248 -0.373zm-4.519 -0.276l-0.248 -0.373 0.377 -0.256 4.39 0.905 -0.129 0.629 -4.39 -0.905zm-0.248 -0.373l0.06 -0.321 0.317 0.065 -0.377 0.256zm0.377 1.442l-0.378 0.255 -0.248 -0.373 0.249 -1.324 0.625 0.117 -0.248 1.325zm-0.378 0.255l-0.306 -0.063 0.058 -0.31 0.248 0.373zm4.519 0.276l0.248 0.374 -0.378 0.255 -4.389 -0.905 0.129 -0.628 4.39 0.904zm0.248 0.374l-0.061 0.321 -0.317 -0.066 0.378 -0.255z"/>
    </g>
    <g>
     <polygon class="fil1" points="23.754,107.31 23.768,105.962 19.288,105.837 19.274,107.185 "/>
     <path id="_1_6" class="fil2" d="M23.449 105.959l0.328 -0.318 0.309 0.324 -0.014 1.348 -0.637 -0.006 0.014 -1.348zm0.328 -0.318l0.312 0.009 -0.003 0.315 -0.309 -0.324zm-4.498 0.517l-0.309 -0.324 0.327 -0.318 4.48 0.125 -0.018 0.642 -4.48 -0.125zm-0.309 -0.324l0.003 -0.327 0.324 0.009 -0.327 0.318zm0.622 1.354l-0.327 0.317 -0.309 -0.324 0.014 -1.347 0.636 0.006 -0.014 1.348zm-0.327 0.317l-0.313 -0.008 0.004 -0.316 0.309 0.324zm4.498 -0.516l0.309 0.324 -0.327 0.318 -4.48 -0.126 0.018 -0.641 4.48 0.125zm0.309 0.324l-0.003 0.327 -0.324 -0.009 0.327 -0.318z"/>
    </g>
    <g>
     <polygon class="fil1" points="25.127,121.723 24.905,120.393 20.472,121.053 20.694,122.383 "/>
     <path id="_1_7" class="fil2" d="M24.591 120.446l0.266 -0.37 0.362 0.265 0.222 1.329 -0.628 0.105 -0.222 -1.329zm0.266 -0.37l0.31 -0.046 0.052 0.311 -0.362 -0.265zm-4.337 1.295l-0.362 -0.265 0.267 -0.37 4.432 -0.66 0.095 0.635 -4.432 0.66zm-0.362 -0.265l-0.053 -0.322 0.32 -0.048 -0.267 0.37zm0.85 1.225l-0.267 0.369 -0.361 -0.265 -0.222 -1.329 0.628 -0.105 0.222 1.33zm-0.267 0.369l-0.309 0.046 -0.052 -0.311 0.361 0.265zm4.338 -1.295l0.362 0.265 -0.267 0.37 -4.433 0.66 -0.095 -0.634 4.433 -0.661zm0.362 0.265l0.053 0.322 -0.32 0.048 0.267 -0.37z"/>
    </g>
    <g>
     <polygon class="fil1" points="28.986,135.683 28.538,134.412 24.286,135.827 24.733,137.098 "/>
     <path id="_1_8" class="fil2" d="M28.238 134.518l0.199 -0.41 0.402 0.198 0.447 1.271 -0.6 0.212 -0.448 -1.271zm0.199 -0.41l0.297 -0.099 0.105 0.297 -0.402 -0.198zm-4.05 2.023l-0.401 -0.198 0.199 -0.41 4.252 -1.415 0.203 0.608 -4.253 1.415zm-0.401 -0.198l-0.109 -0.308 0.308 -0.102 -0.199 0.41zm1.048 1.059l-0.199 0.411 -0.402 -0.199 -0.447 -1.271 0.6 -0.212 0.448 1.271zm-0.199 0.411l-0.297 0.099 -0.105 -0.298 0.402 0.199zm4.05 -2.024l0.401 0.198 -0.198 0.411 -4.253 1.415 -0.203 -0.609 4.253 -1.415zm0.401 0.198l0.109 0.308 -0.307 0.103 0.198 -0.411z"/>
    </g>
    <g>
     <polygon class="fil1" points="35.186,148.773 34.526,147.599 30.582,149.725 31.242,150.901 "/>
     <path id="_1_9" class="fil2" d="M34.249 147.754l0.125 -0.438 0.43 0.127 0.66 1.175 -0.555 0.311 -0.66 -1.175zm0.125 -0.438l0.275 -0.149 0.155 0.276 -0.43 -0.127zm-3.64 2.692l-0.43 -0.127 0.125 -0.438 3.945 -2.127 0.304 0.565 -3.944 2.127zm-0.43 -0.127l-0.16 -0.284 0.285 -0.154 -0.125 0.438zm1.215 0.864l-0.125 0.438 -0.43 -0.126 -0.66 -1.176 0.555 -0.311 0.66 1.175zm-0.125 0.438l-0.275 0.149 -0.155 -0.275 0.43 0.126zm3.64 -2.692l0.43 0.127 -0.126 0.438 -3.944 2.127 -0.305 -0.565 3.945 -2.127zm0.43 0.127l0.16 0.284 -0.286 0.154 0.126 -0.438z"/>
    </g>
    <g>
     <polygon class="fil1" points="43.567,160.579 42.712,159.537 39.2,162.322 40.056,163.363 "/>
     <path id="_1_10" class="fil2" d="M42.466 159.74l0.047 -0.454 0.445 0.049 0.855 1.042 -0.492 0.404 -0.855 -1.041zm0.047 -0.454l0.245 -0.194 0.2 0.243 -0.445 -0.049zm-3.114 3.287l-0.445 -0.049 0.047 -0.453 3.512 -2.785 0.398 0.503 -3.512 2.784zm-0.445 -0.049l-0.208 -0.252 0.255 -0.201 -0.047 0.453zm1.348 0.637l-0.047 0.453 -0.445 -0.049 -0.856 -1.041 0.492 -0.404 0.856 1.041zm-0.047 0.453l-0.245 0.195 -0.2 -0.244 0.445 0.049zm3.113 -3.286l0.445 0.049 -0.046 0.453 -3.512 2.784 -0.399 -0.502 3.512 -2.784zm0.445 0.049l0.207 0.252 -0.253 0.201 0.046 -0.453z"/>
    </g>
    <g>
     <polygon class="fil1" points="53.884,170.738 52.86,169.862 49.888,173.216 50.911,174.093 "/>
     <path id="_1_11" class="fil2" d="M52.653 170.104l-0.033 -0.454 0.447 -0.03 1.024 0.876 -0.414 0.485 -1.024 -0.877zm-0.033 -0.454l0.207 -0.235 0.24 0.205 -0.447 0.03zm-2.492 3.779l-0.447 0.03 -0.034 -0.455 2.973 -3.354 0.48 0.425 -2.972 3.354zm-0.447 0.03l-0.248 -0.213 0.214 -0.242 0.034 0.455zm1.437 0.391l0.034 0.455 -0.447 0.03 -1.024 -0.876 0.414 -0.485 1.023 0.876zm0.034 0.455l-0.208 0.235 -0.239 -0.205 0.447 -0.03zm2.492 -3.779l0.447 -0.03 0.033 0.455 -2.972 3.354 -0.481 -0.425 2.973 -3.354zm0.447 -0.03l0.248 0.212 -0.215 0.243 -0.033 -0.455z"/>
    </g>
    <g>
     <polygon class="fil1" points="65.812,178.952 64.651,178.266 62.305,182.085 63.466,182.771 "/>
     <path id="_1_12" class="fil2" d="M64.489 178.541l-0.111 -0.442 0.435 -0.107 1.161 0.686 -0.324 0.548 -1.161 -0.685zm-0.111 -0.442l0.164 -0.267 0.271 0.16 -0.435 0.107zm-1.8 4.154l-0.435 0.106 -0.111 -0.442 2.346 -3.818 0.547 0.335 -2.347 3.819zm-0.435 0.106l-0.281 -0.165 0.17 -0.277 0.111 0.442zm1.484 0.138l0.112 0.442 -0.435 0.106 -1.161 -0.686 0.324 -0.548 1.16 0.686zm0.112 0.442l-0.164 0.266 -0.271 -0.16 0.435 -0.106zm1.8 -4.155l0.435 -0.106 0.111 0.442 -2.346 3.819 -0.547 -0.336 2.347 -3.819zm0.435 -0.106l0.28 0.166 -0.169 0.276 -0.111 -0.442z"/>
    </g>
    <g>
     <polygon class="fil1" points="78.981,184.982 77.72,184.507 76.068,188.673 77.329,189.147 "/>
     <path id="_1_13" class="fil2" d="M77.607 184.805l-0.186 -0.417 0.411 -0.179 1.261 0.475 -0.225 0.596 -1.261 -0.475zm-0.186 -0.417l0.116 -0.291 0.295 0.112 -0.411 0.179zm-1.055 4.403l-0.41 0.18 -0.186 -0.416 1.651 -4.167 0.597 0.237 -1.652 4.166zm-0.41 0.18l-0.306 -0.115 0.12 -0.301 0.186 0.416zm1.485 -0.122l0.187 0.417 -0.411 0.18 -1.261 -0.475 0.224 -0.596 1.261 0.474zm0.187 0.417l-0.116 0.291 -0.295 -0.111 0.411 -0.18zm1.054 -4.403l0.411 -0.179 0.186 0.416 -1.651 4.166 -0.597 -0.237 1.651 -4.166zm0.411 -0.179l0.306 0.115 -0.12 0.301 -0.186 -0.416z"/>
    </g>
    <g>
     <polygon class="fil1" points="92.993,188.643 91.668,188.394 90.763,192.783 92.088,193.032 "/>
     <path id="_1_14" class="fil2" d="M91.609 188.706l-0.256 -0.377 0.374 -0.248 1.324 0.249 -0.117 0.626 -1.325 -0.25zm-0.256 -0.377l0.064 -0.306 0.31 0.058 -0.374 0.248zm-0.275 4.519l-0.373 0.248 -0.256 -0.377 0.904 -4.39 0.629 0.129 -0.904 4.39zm-0.373 0.248l-0.322 -0.06 0.066 -0.317 0.256 0.377zm1.441 -0.377l0.256 0.378 -0.373 0.248 -1.324 -0.249 0.117 -0.626 1.324 0.249zm0.256 0.378l-0.063 0.306 -0.31 -0.058 0.373 -0.248zm0.276 -4.519l0.373 -0.248 0.256 0.378 -0.905 4.389 -0.629 -0.13 0.905 -4.389zm0.373 -0.248l0.321 0.06 -0.065 0.318 -0.256 -0.378z"/>
    </g>
    <g>
     <polygon class="fil1" points="107.424,189.811 106.077,189.797 105.952,194.277 107.299,194.291 "/>
     <path id="_1_15" class="fil2" d="M106.074 190.115l-0.318 -0.327 0.324 -0.309 1.347 0.014 -0.006 0.636 -1.347 -0.014zm-0.318 -0.327l0.009 -0.313 0.315 0.004 -0.324 0.309zm0.517 4.498l-0.324 0.309 -0.318 -0.327 0.125 -4.48 0.642 0.018 -0.125 4.48zm-0.324 0.309l-0.327 -0.003 0.009 -0.324 0.318 0.327zm1.353 -0.622l0.318 0.327 -0.324 0.309 -1.347 -0.014 0.006 -0.636 1.347 0.014zm0.318 0.327l-0.009 0.313 -0.315 -0.004 0.324 -0.309zm-0.517 -4.498l0.324 -0.309 0.318 0.327 -0.125 4.48 -0.642 -0.018 0.125 -4.48zm0.324 -0.309l0.327 0.003 -0.009 0.324 -0.318 -0.327z"/>
    </g>
    <g>
     <polygon class="fil1" points="121.837,188.438 120.508,188.66 121.168,193.093 122.498,192.871 "/>
     <path id="_1_16" class="fil2" d="M120.56 188.974l-0.369 -0.266 0.265 -0.362 1.329 -0.222 0.105 0.628 -1.33 0.222zm-0.369 -0.266l-0.046 -0.31 0.311 -0.052 -0.265 0.362zm1.294 4.337l-0.265 0.362 -0.369 -0.267 -0.66 -4.432 0.634 -0.095 0.66 4.432zm-0.265 0.362l-0.322 0.053 -0.047 -0.32 0.369 0.267zm1.225 -0.85l0.37 0.267 -0.265 0.361 -1.33 0.222 -0.104 -0.628 1.329 -0.222zm0.37 0.267l0.046 0.309 -0.311 0.052 0.265 -0.361zm-1.295 -4.338l0.265 -0.362 0.369 0.267 0.661 4.433 -0.635 0.095 -0.66 -4.433zm0.265 -0.362l0.322 -0.053 0.047 0.32 -0.369 -0.267z"/>
    </g>
    <g>
     <polygon class="fil1" points="135.798,184.579 134.527,185.027 135.942,189.279 137.213,188.831 "/>
     <path id="_1_17" class="fil2" d="M134.633 185.327l-0.411 -0.199 0.199 -0.402 1.271 -0.448 0.212 0.601 -1.271 0.448zm-0.411 -0.199l-0.098 -0.297 0.297 -0.105 -0.199 0.402zm2.024 4.049l-0.198 0.402 -0.411 -0.199 -1.415 -4.252 0.609 -0.203 1.415 4.252zm-0.198 0.402l-0.308 0.109 -0.103 -0.308 0.411 0.199zm1.059 -1.048l0.41 0.199 -0.198 0.402 -1.271 0.447 -0.212 -0.6 1.271 -0.448zm0.41 0.199l0.099 0.297 -0.297 0.105 0.198 -0.402zm-2.024 -4.05l0.199 -0.402 0.41 0.199 1.415 4.253 -0.609 0.203 -1.415 -4.253zm0.199 -0.402l0.308 -0.108 0.102 0.307 -0.41 -0.199z"/>
    </g>
    <g>
     <polygon class="fil1" points="148.888,178.379 147.713,179.039 149.84,182.983 151.015,182.323 "/>
     <path id="_1_18" class="fil2" d="M147.869 179.316l-0.438 -0.125 0.126 -0.43 1.175 -0.66 0.312 0.555 -1.175 0.66zm-0.438 -0.125l-0.149 -0.275 0.275 -0.155 -0.126 0.43zm2.692 3.64l-0.127 0.43 -0.438 -0.125 -2.127 -3.945 0.565 -0.305 2.127 3.945zm-0.127 0.43l-0.285 0.16 -0.153 -0.285 0.438 0.125zm0.864 -1.215l0.438 0.125 -0.127 0.43 -1.175 0.66 -0.312 -0.555 1.176 -0.66zm0.438 0.125l0.148 0.275 -0.275 0.155 0.127 -0.43zm-2.692 -3.64l0.126 -0.43 0.439 0.126 2.127 3.944 -0.565 0.305 -2.127 -3.945zm0.126 -0.43l0.285 -0.16 0.154 0.286 -0.439 -0.126z"/>
    </g>
    <g>
     <polygon class="fil1" points="160.694,169.997 159.652,170.853 162.437,174.365 163.478,173.509 "/>
     <path id="_1_19" class="fil2" d="M159.854 171.099l-0.453 -0.047 0.049 -0.445 1.041 -0.856 0.405 0.492 -1.042 0.856zm-0.453 -0.047l-0.195 -0.245 0.244 -0.2 -0.049 0.445zm3.287 3.113l-0.049 0.446 -0.454 -0.047 -2.784 -3.512 0.502 -0.398 2.785 3.511zm-0.049 0.446l-0.252 0.207 -0.202 -0.254 0.454 0.047zm0.636 -1.348l0.454 0.047 -0.049 0.445 -1.041 0.856 -0.405 -0.492 1.041 -0.856zm0.454 0.047l0.194 0.245 -0.243 0.2 0.049 -0.445zm-3.287 -3.113l0.049 -0.446 0.454 0.047 2.784 3.512 -0.503 0.399 -2.784 -3.512zm0.049 -0.446l0.252 -0.207 0.202 0.254 -0.454 -0.047z"/>
    </g>
    <g>
     <polygon class="fil1" points="170.853,159.681 169.977,160.705 173.331,163.677 174.207,162.653 "/>
     <path id="_1_20" class="fil2" d="M170.219 160.912l-0.455 0.033 -0.029 -0.447 0.876 -1.024 0.484 0.414 -0.876 1.024zm-0.455 0.033l-0.234 -0.208 0.205 -0.239 0.029 0.447zm3.78 2.492l0.029 0.447 -0.454 0.033 -3.355 -2.972 0.426 -0.48 3.354 2.972zm0.029 0.447l-0.212 0.248 -0.242 -0.215 0.454 -0.033zm0.392 -1.438l0.455 -0.033 0.029 0.447 -0.876 1.024 -0.484 -0.414 0.876 -1.024zm0.455 -0.033l0.234 0.208 -0.205 0.239 -0.029 -0.447zm-3.779 -2.492l-0.03 -0.447 0.455 -0.033 3.354 2.972 -0.425 0.48 -3.354 -2.972zm-0.03 -0.447l0.212 -0.248 0.243 0.215 -0.455 0.033z"/>
    </g>
    <g>
     <polygon class="fil1" points="179.067,147.753 178.381,148.914 182.2,151.26 182.885,150.099 "/>
     <path id="_1_21" class="fil2" d="M178.655 149.075l-0.442 0.112 -0.106 -0.435 0.686 -1.161 0.548 0.324 -0.686 1.16zm-0.442 0.112l-0.266 -0.164 0.16 -0.271 0.106 0.435zm4.155 1.8l0.106 0.435 -0.442 0.111 -3.819 -2.346 0.336 -0.547 3.819 2.347zm0.106 0.435l-0.166 0.281 -0.276 -0.17 0.442 -0.111zm0.137 -1.484l0.442 -0.112 0.106 0.435 -0.685 1.161 -0.548 -0.324 0.685 -1.16zm0.442 -0.112l0.267 0.164 -0.161 0.271 -0.106 -0.435zm-4.154 -1.8l-0.106 -0.435 0.441 -0.111 3.819 2.346 -0.335 0.547 -3.819 -2.347zm-0.106 -0.435l0.165 -0.28 0.276 0.169 -0.441 0.111z"/>
    </g>
    <g>
     <polygon class="fil1" points="185.096,134.584 184.621,135.845 188.788,137.497 189.262,136.236 "/>
     <path id="_1_22" class="fil2" d="M184.919 135.958l-0.416 0.186 -0.18 -0.411 0.475 -1.261 0.596 0.224 -0.475 1.262zm-0.416 0.186l-0.291 -0.116 0.111 -0.295 0.18 0.411zm4.403 1.055l0.18 0.41 -0.417 0.186 -4.166 -1.651 0.236 -0.597 4.167 1.652zm0.18 0.41l-0.115 0.306 -0.302 -0.12 0.417 -0.186zm-0.122 -1.486l0.416 -0.186 0.18 0.411 -0.474 1.261 -0.596 -0.224 0.474 -1.262zm0.416 -0.186l0.291 0.116 -0.111 0.295 -0.18 -0.411zm-4.402 -1.054l-0.18 -0.411 0.416 -0.186 4.166 1.651 -0.236 0.597 -4.166 -1.651zm-0.18 -0.411l0.115 -0.306 0.301 0.12 -0.416 0.186z"/>
    </g>
    <g>
     <polygon class="fil1" points="188.758,120.572 188.508,121.897 192.898,122.802 193.147,121.477 "/>
     <path id="_1_23" class="fil2" d="M188.821 121.955l-0.377 0.256 -0.249 -0.373 0.25 -1.324 0.625 0.117 -0.249 1.324zm-0.377 0.256l-0.307 -0.063 0.058 -0.31 0.249 0.373zm4.518 0.276l0.248 0.373 -0.377 0.256 -4.389 -0.905 0.129 -0.629 4.389 0.905zm0.248 0.373l-0.06 0.321 -0.317 -0.065 0.377 -0.256zm-0.376 -1.441l0.378 -0.256 0.248 0.373 -0.25 1.324 -0.625 -0.117 0.249 -1.324zm0.378 -0.256l0.306 0.063 -0.058 0.31 -0.248 -0.373zm-4.519 -0.276l-0.248 -0.373 0.377 -0.256 4.39 0.905 -0.13 0.629 -4.389 -0.905zm-0.248 -0.373l0.06 -0.322 0.317 0.066 -0.377 0.256z"/>
    </g>
    <g>
     <polygon class="fil1" points="189.926,106.14 189.912,107.488 194.392,107.613 194.406,106.266 "/>
     <path id="_1_24" class="fil2" d="M190.23 107.491l-0.327 0.318 -0.31 -0.324 0.014 -1.348 0.637 0.006 -0.014 1.348zm-0.327 0.318l-0.313 -0.009 0.003 -0.315 0.31 0.324zm4.497 -0.517l0.31 0.324 -0.327 0.318 -4.48 -0.125 0.018 -0.642 4.479 0.125zm0.31 0.324l-0.003 0.327 -0.324 -0.009 0.327 -0.318zm-0.623 -1.353l0.327 -0.318 0.31 0.324 -0.014 1.347 -0.637 -0.006 0.014 -1.347zm0.327 -0.318l0.313 0.009 -0.003 0.315 -0.31 -0.324zm-4.497 0.516l-0.31 -0.324 0.327 -0.318 4.48 0.126 -0.017 0.642 -4.48 -0.126zm-0.31 -0.324l0.004 -0.327 0.323 0.009 -0.327 0.318z"/>
    </g>
    <g>
     <polygon class="fil1" points="188.553,91.728 188.775,93.057 193.208,92.397 192.986,91.067 "/>
     <path id="_1_25" class="fil2" d="M189.089 93.005l-0.267 0.369 -0.361 -0.265 -0.222 -1.329 0.628 -0.105 0.222 1.33zm-0.267 0.369l-0.309 0.046 -0.052 -0.311 0.361 0.265zm4.338 -1.294l0.362 0.265 -0.267 0.369 -4.433 0.66 -0.095 -0.634 4.433 -0.66zm0.362 0.265l0.053 0.322 -0.32 0.047 0.267 -0.369zm-0.85 -1.225l0.266 -0.37 0.362 0.265 0.222 1.33 -0.628 0.104 -0.222 -1.329zm0.266 -0.37l0.31 -0.046 0.052 0.311 -0.362 -0.265zm-4.337 1.295l-0.362 -0.265 0.267 -0.369 4.432 -0.661 0.095 0.635 -4.432 0.66zm-0.362 -0.265l-0.053 -0.322 0.32 -0.047 -0.267 0.369z"/>
    </g>
    <g>
     <polygon class="fil1" points="184.694,77.767 185.141,79.038 189.394,77.623 188.946,76.352 "/>
     <path id="_1_26" class="fil2" d="M185.441 78.932l-0.199 0.411 -0.401 -0.199 -0.448 -1.271 0.601 -0.212 0.447 1.271zm-0.199 0.411l-0.297 0.099 -0.104 -0.298 0.401 0.199zm4.05 -2.024l0.402 0.198 -0.199 0.411 -4.253 1.415 -0.203 -0.609 4.253 -1.415zm0.402 0.198l0.109 0.308 -0.308 0.103 0.199 -0.411zm-1.049 -1.059l0.199 -0.41 0.402 0.198 0.448 1.271 -0.601 0.212 -0.448 -1.271zm0.199 -0.41l0.297 -0.099 0.105 0.297 -0.402 -0.198zm-4.049 2.023l-0.402 -0.198 0.199 -0.41 4.252 -1.415 0.203 0.608 -4.252 1.415zm-0.402 -0.198l-0.108 -0.308 0.307 -0.102 -0.199 0.41z"/>
    </g>
    <g>
     <polygon class="fil1" points="178.493,64.677 179.153,65.852 183.098,63.724 182.438,62.55 "/>
     <path id="_1_27" class="fil2" d="M179.431 65.696l-0.125 0.438 -0.43 -0.126 -0.66 -1.175 0.555 -0.312 0.66 1.175zm-0.125 0.438l-0.276 0.149 -0.154 -0.275 0.43 0.126zm3.64 -2.692l0.43 0.127 -0.126 0.438 -3.944 2.127 -0.305 -0.565 3.945 -2.127zm0.43 0.127l0.159 0.284 -0.285 0.154 0.126 -0.438zm-1.216 -0.864l0.126 -0.438 0.43 0.127 0.66 1.175 -0.556 0.311 -0.66 -1.175zm0.126 -0.438l0.275 -0.149 0.155 0.276 -0.43 -0.127zm-3.64 2.692l-0.43 -0.126 0.125 -0.439 3.945 -2.127 0.304 0.565 -3.944 2.127zm-0.43 -0.126l-0.16 -0.285 0.285 -0.154 -0.125 0.439z"/>
    </g>
    <g>
     <polygon class="fil1" points="170.112,52.871 170.968,53.913 174.479,51.128 173.624,50.087 "/>
     <path id="_1_28" class="fil2" d="M171.214 53.711l-0.047 0.453 -0.445 -0.049 -0.856 -1.041 0.492 -0.405 0.856 1.042zm-0.047 0.453l-0.245 0.195 -0.2 -0.244 0.445 0.049zm3.113 -3.287l0.445 0.049 -0.046 0.454 -3.512 2.784 -0.399 -0.502 3.512 -2.785zm0.445 0.049l0.207 0.252 -0.253 0.202 0.046 -0.454zm-1.347 -0.637l0.047 -0.453 0.445 0.049 0.855 1.041 -0.492 0.405 -0.855 -1.042zm0.047 -0.453l0.245 -0.195 0.2 0.244 -0.445 -0.049zm-3.114 3.287l-0.445 -0.049 0.047 -0.454 3.512 -2.784 0.398 0.503 -3.512 2.784zm-0.445 -0.049l-0.207 -0.253 0.254 -0.201 -0.047 0.454z"/>
    </g>
    <g>
     <polygon class="fil1" points="159.796,42.712 160.82,43.588 163.792,40.234 162.768,39.358 "/>
     <path id="_1_29" class="fil2" d="M161.027 43.346l0.033 0.454 -0.447 0.03 -1.024 -0.876 0.414 -0.484 1.024 0.876zm0.033 0.454l-0.208 0.235 -0.239 -0.205 0.447 -0.03zm2.492 -3.779l0.447 -0.029 0.033 0.454 -2.972 3.354 -0.48 -0.425 2.972 -3.354zm0.447 -0.029l0.248 0.212 -0.215 0.242 -0.033 -0.454zm-1.438 -0.392l-0.033 -0.455 0.447 -0.029 1.024 0.876 -0.414 0.484 -1.024 -0.876zm-0.033 -0.455l0.207 -0.234 0.24 0.205 -0.447 0.029zm-2.492 3.779l-0.447 0.03 -0.033 -0.455 2.972 -3.354 0.48 0.425 -2.972 3.354zm-0.447 0.03l-0.248 -0.212 0.215 -0.243 0.033 0.455z"/>
    </g>
    <g>
     <polygon class="fil1" points="147.868,34.498 149.028,35.184 151.375,31.365 150.214,30.68 "/>
     <path id="_1_30" class="fil2" d="M149.19 34.91l0.112 0.442 -0.435 0.106 -1.161 -0.686 0.324 -0.548 1.16 0.686zm0.112 0.442l-0.164 0.266 -0.271 -0.16 0.435 -0.106zm1.799 -4.155l0.435 -0.106 0.112 0.442 -2.346 3.819 -0.547 -0.336 2.346 -3.819zm0.435 -0.106l0.281 0.166 -0.169 0.276 -0.112 -0.442zm-1.484 -0.137l-0.111 -0.442 0.435 -0.107 1.16 0.686 -0.323 0.548 -1.161 -0.685zm-0.111 -0.442l0.164 -0.267 0.271 0.16 -0.435 0.107zm-1.8 4.154l-0.435 0.106 -0.111 -0.442 2.346 -3.818 0.546 0.335 -2.346 3.819zm-0.435 0.106l-0.281 -0.165 0.17 -0.277 0.111 0.442z"/>
    </g>
    <g>
     <polygon class="fil1" points="134.699,28.469 135.96,28.944 137.612,24.777 136.35,24.303 "/>
     <path id="_1_31" class="fil2" d="M136.072 28.646l0.187 0.416 -0.411 0.18 -1.261 -0.475 0.224 -0.596 1.261 0.475zm0.187 0.416l-0.116 0.291 -0.295 -0.111 0.411 -0.18zm1.054 -4.403l0.411 -0.18 0.186 0.417 -1.651 4.166 -0.597 -0.237 1.651 -4.166zm0.411 -0.18l0.305 0.115 -0.119 0.302 -0.186 -0.417zm-1.486 0.122l-0.186 -0.416 0.411 -0.18 1.261 0.474 -0.225 0.596 -1.261 -0.474zm-0.186 -0.416l0.115 -0.291 0.296 0.111 -0.411 0.18zm-1.055 4.402l-0.41 0.18 -0.187 -0.417 1.652 -4.165 0.597 0.236 -1.652 4.166zm-0.41 0.18l-0.306 -0.115 0.119 -0.302 0.187 0.417z"/>
    </g>
    <g>
     <polygon class="fil1" points="120.687,24.807 122.011,25.057 122.916,20.667 121.592,20.418 "/>
     <path id="_1_32" class="fil2" d="M122.07 24.744l0.256 0.377 -0.373 0.248 -1.325 -0.249 0.118 -0.625 1.324 0.249zm0.256 0.377l-0.063 0.307 -0.31 -0.059 0.373 -0.248zm0.276 -4.519l0.373 -0.248 0.256 0.378 -0.905 4.389 -0.629 -0.129 0.905 -4.39zm0.373 -0.248l0.321 0.061 -0.065 0.317 -0.256 -0.378zm-1.442 0.377l-0.255 -0.378 0.373 -0.248 1.324 0.249 -0.118 0.626 -1.324 -0.249zm-0.255 -0.378l0.063 -0.306 0.31 0.058 -0.373 0.248zm-0.277 4.519l-0.373 0.248 -0.255 -0.377 0.905 -4.39 0.628 0.13 -0.905 4.389zm-0.373 0.248l-0.321 -0.06 0.066 -0.317 0.255 0.377z"/>
    </g>
    <g>
     <polygon class="fil1" points="106.255,23.639 107.603,23.653 107.728,19.173 106.38,19.159 "/>
     <path id="_1_33" class="fil2" d="M107.606 23.335l0.318 0.327 -0.324 0.31 -1.348 -0.014 0.006 -0.637 1.348 0.014zm0.318 0.327l-0.009 0.313 -0.315 -0.003 0.324 -0.31zm-0.517 -4.497l0.324 -0.31 0.318 0.327 -0.125 4.48 -0.642 -0.018 0.125 -4.479zm0.324 -0.31l0.327 0.003 -0.009 0.324 -0.318 -0.327zm-1.354 0.623l-0.317 -0.327 0.324 -0.31 1.347 0.014 -0.006 0.637 -1.348 -0.014zm-0.317 -0.327l0.008 -0.313 0.316 0.003 -0.324 0.31zm0.516 4.497l-0.324 0.31 -0.318 -0.328 0.126 -4.479 0.641 0.017 -0.125 4.48zm-0.324 0.31l-0.327 -0.004 0.009 -0.324 0.318 0.328z"/>
    </g>
    <g>
     <polygon class="fil1" points="91.842,25.012 93.172,24.79 92.512,20.357 91.182,20.579 "/>
     <path id="_1_34" class="fil2" d="M93.119 24.476l0.37 0.267 -0.265 0.361 -1.329 0.222 -0.105 -0.628 1.329 -0.222zm0.37 0.267l0.046 0.309 -0.311 0.052 0.265 -0.361zm-1.295 -4.338l0.265 -0.362 0.37 0.267 0.66 4.433 -0.635 0.095 -0.66 -4.433zm0.265 -0.362l0.322 -0.053 0.048 0.32 -0.37 -0.267zm-1.225 0.85l-0.369 -0.266 0.265 -0.362 1.329 -0.222 0.105 0.628 -1.33 0.222zm-0.369 -0.266l-0.046 -0.31 0.311 -0.052 -0.265 0.362zm1.295 4.337l-0.265 0.362 -0.37 -0.267 -0.66 -4.432 0.634 -0.095 0.661 4.432zm-0.265 0.362l-0.322 0.053 -0.048 -0.32 0.37 0.267z"/>
    </g>
   </g>
   <g>
    <polygon class="fil1" points="70.247,30.967 71.391,30.437 67.165,21.301 66.021,21.83 "/>
    <path id="_1_35" class="fil2" d="M71.257 30.149l0.421 0.155 -0.153 0.422 -1.144 0.53 -0.267 -0.578 1.143 -0.529zm0.421 0.155l0.134 0.289 -0.287 0.133 0.153 -0.422zm-4.8 -8.87l0.153 -0.422 0.421 0.156 4.226 9.136 -0.574 0.266 -4.226 -9.136zm0.153 -0.422l0.288 -0.133 0.133 0.289 -0.421 -0.156zm-0.876 1.106l-0.421 -0.155 0.153 -0.422 1.144 -0.529 0.268 0.577 -1.144 0.529zm-0.421 -0.155l-0.134 -0.29 0.287 -0.132 -0.153 0.422zm4.801 8.871l-0.154 0.422 -0.421 -0.156 -4.226 -9.137 0.574 -0.266 4.227 9.137zm-0.154 0.422l-0.287 0.133 -0.134 -0.289 0.421 0.156z"/>
   </g>
   <path class="fil2" d="M206.358 75.011c1.022,-0.354 3.671,-1.276 2.968,-3.319 -0.765,-2.22 -3.969,-0.929 -4.382,-0.788 -0.825,0.284 -3.677,1.255 -2.965,3.319 0.716,2.083 3.398,1.125 4.379,0.788zm-1.16 -3.37c0.668,-0.23 3.028,-1.131 3.509,0.263 0.244,0.708 -0.097,1.507 -2.602,2.368 -2.594,0.894 -3.285,0.386 -3.508,-0.264 -0.46,-1.336 1.698,-2.057 2.601,-2.367z"/>
   <path id="_1_36" class="fil2" d="M206.289 75.05c1.021,-0.353 3.67,-1.275 2.967,-3.318 -0.765,-2.22 -3.968,-0.929 -4.381,-0.788 -0.826,0.284 -3.678,1.255 -2.966,3.319 0.716,2.083 3.398,1.125 4.38,0.787zm-1.161 -3.369c0.669,-0.23 3.029,-1.131 3.51,0.264 0.243,0.707 -0.098,1.506 -2.603,2.367 -2.593,0.894 -3.285,0.386 -3.508,-0.264 -0.459,-1.335 1.698,-2.057 2.601,-2.367z"/>
   <path id="_2" class="fil2" d="M208.124 81.285c1.046,-0.273 3.758,-0.99 3.213,-3.083 -0.592,-2.271 -3.886,-1.231 -4.308,-1.12 -0.845,0.219 -3.763,0.969 -3.213,3.081 0.556,2.131 3.303,1.384 4.308,1.122zm-0.898 -3.449c0.683,-0.178 3.105,-0.896 3.477,0.532 0.189,0.723 -0.212,1.494 -2.775,2.162 -2.655,0.692 -3.306,0.131 -3.479,-0.533 -0.355,-1.367 1.852,-1.92 2.777,-2.161z"/>
   <path id="_3" class="fil2" d="M208.054 81.325c1.047,-0.273 3.758,-0.99 3.213,-3.083 -0.592,-2.271 -3.885,-1.231 -4.307,-1.12 -0.846,0.219 -3.764,0.97 -3.213,3.081 0.555,2.131 3.303,1.384 4.307,1.122zm-0.898 -3.448c0.683,-0.179 3.106,-0.897 3.477,0.531 0.189,0.723 -0.212,1.494 -2.775,2.163 -2.654,0.691 -3.305,0.13 -3.478,-0.534 -0.356,-1.366 1.851,-1.92 2.776,-2.16z"/>
   <path id="_4" class="fil2" d="M209.488 87.569c1.058,-0.223 3.8,-0.809 3.357,-2.923 -0.482,-2.298 -3.823,-1.419 -4.25,-1.328 -0.854,0.18 -3.805,0.788 -3.357,2.924 0.453,2.156 3.233,1.539 4.25,1.327zm-0.733 -3.489c0.692,-0.144 3.146,-0.743 3.448,0.701 0.153,0.731 -0.282,1.48 -2.875,2.026 -2.685,0.563 -3.308,-0.029 -3.449,-0.701 -0.29,-1.383 1.941,-1.83 2.876,-2.026z"/>
   <path id="_5" class="fil2" d="M208.809 129.15c1.06,0.21 3.815,0.741 4.231,-1.381 0.453,-2.304 -2.965,-2.796 -3.394,-2.879 -0.856,-0.168 -3.81,-0.76 -4.232,1.38 -0.425,2.162 2.376,2.68 3.395,2.88zm0.687 -3.496c0.693,0.137 3.187,0.541 2.902,1.989 -0.144,0.734 -0.84,1.253 -3.44,0.743 -2.691,-0.529 -3.033,-1.317 -2.901,-1.989 0.272,-1.387 2.501,-0.927 3.439,-0.743z"/>
   <path id="_6" class="fil2" d="M207.944 132.691c-0.159,1.093 -0.942,1.8 -2.102,1.519 -0.898,-0.221 -1.289,-0.989 -1.075,-1.867 0.193,-0.787 0.755,-1.121 1.515,-1.256l-0.232 -0.762c-0.96,0.301 -1.663,0.812 -1.911,1.833 -0.321,1.312 0.275,2.505 1.618,2.833 0.898,0.219 1.673,-0.106 2.223,-0.827 0.215,0.651 0.645,1.172 1.331,1.34 1.069,0.262 2.109,-0.403 2.371,-1.474 0.226,-0.929 -0.096,-1.799 -0.81,-2.422l-0.519 0.547c0.475,0.373 0.866,1.014 0.712,1.64 -0.164,0.675 -0.791,1.144 -1.509,0.967 -0.868,-0.211 -1.216,-1.11 -0.976,-1.917l-0.636 -0.154z"/>
   <path id="_7" class="fil2" d="M205.236 141.586c1.02,0.354 3.675,1.261 4.382,-0.78 0.767,-2.218 -2.549,-3.18 -2.961,-3.324 -0.824,-0.284 -3.668,-1.28 -4.382,0.78 -0.72,2.081 1.98,2.985 2.961,3.324zm1.166 -3.366c0.667,0.23 3.079,0.978 2.598,2.372 -0.247,0.707 -1.007,1.124 -3.509,0.258 -2.592,-0.897 -2.823,-1.725 -2.597,-2.373 0.463,-1.335 2.604,-0.571 3.508,-0.257z"/>
   <path id="_8" class="fil2" d="M183.886 177.186c0.818,0.705 2.948,2.529 4.36,0.894 1.533,-1.778 -1.193,-3.898 -1.523,-4.183 -0.661,-0.57 -2.935,-2.545 -4.361,-0.894 -1.438,1.667 0.738,3.504 1.524,4.183zm2.327 -2.699c0.536,0.461 2.501,2.049 1.537,3.165 -0.489,0.567 -1.349,0.674 -3.355,-1.057 -2.076,-1.791 -1.984,-2.645 -1.536,-3.163 0.922,-1.071 2.631,0.431 3.354,1.055z"/>
   <path id="_9" class="fil2" d="M179.04 180.373c-0.634,-0.629 -1.1,-1.619 -0.362,-2.364 0.644,-0.649 1.594,-0.234 2.148,0.315 0.64,0.637 0.9,1.729 0.31,2.328 -0.666,0.671 -1.521,0.291 -2.096,-0.279zm2.872 3.832c0.477,-0.114 0.969,-0.328 1.312,-0.674 0.982,-0.988 1.04,-2.965 -1.157,-5.146 -1.025,-1.017 -2.608,-2.091 -3.889,-0.8 -1.003,1.009 -0.587,2.448 0.32,3.347 0.826,0.822 2.121,1.168 3.029,0.255 0.49,-0.494 0.62,-0.996 0.581,-1.662 0.721,0.788 1.597,2.594 0.674,3.523 -0.293,0.294 -0.681,0.362 -1.063,0.436l0.193 0.721z"/>
   <path id="_10" class="fil2" d="M174.729 186.142c0.735,0.793 2.651,2.842 4.235,1.372 1.721,-1.595 -0.753,-4.004 -1.051,-4.323 -0.594,-0.642 -2.635,-2.856 -4.233,-1.373 -1.615,1.498 0.343,3.564 1.049,4.324zm2.614 -2.422c0.479,0.519 2.258,2.312 1.176,3.316 -0.549,0.509 -1.417,0.52 -3.218,-1.423 -1.865,-2.01 -1.679,-2.848 -1.176,-3.315 1.034,-0.961 2.567,0.72 3.218,1.422z"/>
   <path id="_11" class="fil2" d="M138.276 206.344c0.353,1.021 1.276,3.67 3.318,2.967 2.22,-0.765 0.93,-3.968 0.788,-4.381 -0.284,-0.825 -1.255,-3.677 -3.319,-2.966 -2.082,0.716 -1.125,3.399 -0.787,4.38zm3.37 -1.16c0.229,0.668 1.13,3.028 -0.265,3.509 -0.706,0.243 -1.505,-0.098 -2.367,-2.603 -0.893,-2.593 -0.386,-3.285 0.264,-3.508 1.336,-0.459 2.057,1.698 2.368,2.602z"/>
   <path id="_12" class="fil2" d="M135.244 205.581c0.228,0.939 -0.297,1.644 -1.205,1.864 -0.909,0.221 -1.698,-0.166 -1.924,-1.106 -0.232,-0.949 0.285,-1.64 1.204,-1.863 0.918,-0.222 1.695,0.156 1.925,1.105zm-2.038 4.162c-0.199,-0.819 0.168,-1.464 0.986,-1.662 0.758,-0.184 1.441,0.164 1.628,0.942 0.206,0.847 -0.112,1.524 -0.98,1.734 -0.827,0.2 -1.438,-0.207 -1.634,-1.014zm-0.316 -1.657c-0.44,0.61 -0.628,1.072 -0.444,1.829 0.301,1.242 1.347,1.768 2.55,1.478 1.14,-0.277 1.905,-1.222 1.616,-2.413 -0.193,-0.797 -0.551,-1.127 -1.26,-1.491 0.671,-0.46 0.831,-1.345 0.65,-2.091 -0.27,-1.111 -1.222,-1.949 -2.837,-1.558 -1.534,0.371 -2.095,1.502 -1.808,2.682 0.18,0.749 0.726,1.461 1.533,1.564z"/>
   <path id="_13" class="fil2" d="M125.717 209.471c0.221,1.057 0.806,3.801 2.921,3.358 2.299,-0.482 1.418,-3.822 1.328,-4.248 -0.178,-0.854 -0.787,-3.805 -2.92,-3.358 -2.157,0.451 -1.542,3.232 -1.329,4.248zm3.487 -0.732c0.145,0.694 0.745,3.146 -0.7,3.449 -0.733,0.154 -1.482,-0.284 -2.024,-2.877 -0.564,-2.684 0.028,-3.307 0.7,-3.447 1.382,-0.291 1.828,1.94 2.024,2.875z"/>
   <polygon id="_14" class="fil2" points="85.329,213.105 87.662,212.812 87.769,212.229 86.248,212.406 87.359,206.304 88.739,206.555 88.856,205.912 85.393,205.28 85.274,205.925 86.593,206.166 "/>
   <path id="_15" class="fil2" d="M82.057 205.147c-0.267,0.919 -0.854,1.396 -1.655,1.831l-0.641 0.346c-0.899,0.486 -1.952,0.945 -2.219,2.035 -0.268,1.101 0.328,1.942 1.398,2.204 1.303,0.316 2.234,-0.43 2.604,-1.643l-0.757 -0.185c-0.231,0.777 -0.792,1.411 -1.682,1.193 -0.686,-0.167 -0.968,-0.716 -0.804,-1.393 0.2,-0.818 1.298,-1.33 1.991,-1.676 1.38,-0.7 2.209,-1.246 2.597,-2.841l0.081 -0.322 -4.068 -0.994 -0.155 0.637 3.31 0.808z"/>
   <path id="_16" class="fil2" d="M71.707 205.196c-0.353,1.02 -1.261,3.674 0.78,4.381 2.219,0.768 3.181,-2.548 3.324,-2.96 0.285,-0.824 1.28,-3.668 -0.78,-4.382 -2.081,-0.72 -2.984,1.979 -3.324,2.961zm3.367 1.166c-0.231,0.667 -0.98,3.079 -2.373,2.597 -0.707,-0.246 -1.124,-1.006 -0.258,-3.508 0.898,-2.592 1.726,-2.823 2.373,-2.598 1.335,0.463 0.571,2.605 0.258,3.509z"/>
   <polygon id="_17" class="fil2" points="34.896,188.053 37.055,188.984 37.443,188.535 36.042,187.917 40.094,183.222 41.156,184.138 41.583,183.644 38.917,181.342 38.49,181.838 39.505,182.712 "/>
   <path id="_18" class="fil2" d="M29.203 182.418l2.383 2.346 3.129 -2.735 -0.452 -0.666c-0.543,0.137 -1.087,0.126 -1.509,-0.288 -0.407,-0.402 -0.532,-1.282 0.35,-2.177 0.555,-0.564 1.544,-0.902 2.18,-0.275 0.467,0.459 0.509,1.171 0.314,1.768l0.745 0.103c0.161,-0.83 0.074,-1.675 -0.564,-2.301 -0.976,-0.962 -2.369,-0.716 -3.274,0.202 -1.048,1.066 -1.016,2.351 -0.195,3.16 0.342,0.335 0.747,0.515 1.224,0.534l-1.985 1.72 -1.887 -1.859 -0.459 0.468z"/>
   <path id="_19" class="fil2" d="M27.21 174.753c-0.793,0.735 -2.842,2.651 -1.372,4.235 1.595,1.721 4.005,-0.754 4.323,-1.052 0.642,-0.593 2.856,-2.635 1.373,-4.232 -1.498,-1.616 -3.564,0.343 -4.324,1.049zm2.422 2.613c-0.518,0.479 -2.312,2.258 -3.316,1.177 -0.509,-0.549 -0.52,-1.417 1.423,-3.218 2.01,-1.865 2.848,-1.679 3.315,-1.177 0.961,1.035 -0.72,2.568 -1.422,3.218z"/>
   <polygon id="_20" class="fil2" points="3.741,141.268 5.139,143.16 5.699,142.967 4.801,141.726 10.665,139.708 11.121,141.033 11.741,140.82 10.595,137.49 9.974,137.703 10.411,138.971 "/>
   <path id="_21" class="fil2" d="M7.775 135.251c-0.939,0.231 -1.645,-0.29 -1.87,-1.198 -0.224,-0.908 0.159,-1.697 1.098,-1.928 0.947,-0.236 1.642,0.278 1.868,1.195 0.226,0.918 -0.149,1.697 -1.096,1.931zm-4.171 -2.021c0.818,-0.202 1.464,0.162 1.666,0.98 0.186,0.757 -0.159,1.44 -0.935,1.632 -0.847,0.209 -1.523,-0.105 -1.738,-0.973 -0.204,-0.828 0.201,-1.44 1.007,-1.639zm1.655 -0.322c-0.611,-0.439 -1.074,-0.625 -1.831,-0.438 -1.24,0.307 -1.763,1.356 -1.466,2.557 0.281,1.139 1.228,1.9 2.418,1.607 0.798,-0.197 1.126,-0.556 1.487,-1.265 0.463,0.667 1.348,0.822 2.095,0.639 1.108,-0.275 1.943,-1.23 1.544,-2.843 -0.378,-1.534 -1.51,-2.089 -2.689,-1.798 -0.747,0.183 -1.457,0.734 -1.558,1.541z"/>
   <path id="_22" class="fil2" d="M3.826 125.736c-1.059,0.214 -3.806,0.783 -3.377,2.901 0.468,2.3 3.814,1.441 4.241,1.353 0.855,-0.173 3.81,-0.761 3.375,-2.899 -0.438,-2.159 -3.222,-1.562 -4.239,-1.355zm0.709 3.492c-0.692,0.141 -3.15,0.724 -3.444,-0.722 -0.148,-0.733 0.293,-1.479 2.89,-2.008 2.688,-0.545 3.307,0.052 3.443,0.722 0.282,1.385 -1.953,1.818 -2.889,2.008z"/>
   <path id="_23" class="fil2" d="M6.893 88.259c-0.933,-0.212 -1.444,-0.77 -1.926,-1.544l-0.384 -0.618c-0.538,-0.869 -1.059,-1.894 -2.163,-2.095 -1.113,-0.202 -1.917,0.443 -2.115,1.526 -0.24,1.32 0.56,2.204 1.793,2.503l0.139 -0.767c-0.789,-0.187 -1.454,-0.708 -1.29,-1.609 0.127,-0.695 0.66,-1.008 1.343,-0.884 0.829,0.151 1.405,1.216 1.789,1.889 0.781,1.336 1.375,2.129 2.991,2.424l0.326 0.06 0.75 -4.119 -0.642 -0.118 -0.611 3.352z"/>
   <polygon id="_24" class="fil2" points="1.737,78.822 1.892,81.17 2.467,81.31 2.38,79.781 8.405,81.25 8.073,82.613 8.709,82.769 9.543,79.347 8.909,79.192 8.592,80.494 "/>
   <path id="_25" class="fil2" d="M8.155 71.708c-1.015,-0.366 -3.658,-1.306 -4.391,0.728 -0.795,2.209 2.511,3.211 2.92,3.359 0.823,0.295 3.654,1.326 4.392,-0.728 0.747,-2.071 -1.943,-3.006 -2.921,-3.359zm-1.206 3.353c-0.665,-0.239 -3.068,-1.016 -2.569,-2.405 0.253,-0.703 1.02,-1.111 3.512,-0.214 2.581,0.929 2.801,1.758 2.569,2.404 -0.478,1.329 -2.613,0.54 -3.512,0.215z"/>
   <path id="_26" class="fil2" d="M29.475 40.818c-0.685,-0.668 -0.831,-1.41 -0.836,-2.323l-0.006 -0.727c-0.006,-1.023 0.084,-2.168 -0.753,-2.916 -0.845,-0.754 -1.867,-0.623 -2.6,0.198 -0.893,1 -0.672,2.172 0.224,3.07l0.518 -0.58c-0.576,-0.572 -0.871,-1.363 -0.262,-2.046 0.471,-0.527 1.09,-0.518 1.609,-0.053 0.627,0.56 0.564,1.769 0.54,2.544 -0.03,1.546 0.063,2.534 1.287,3.627l0.248 0.222 2.788 -3.121 -0.488 -0.437 -2.269 2.542z"/>
   <path id="_27" class="fil2" d="M30.546 29.461l-0.707 0.717 1.763 5.599 0.362 0.357 2.091 -2.125 1.378 1.356 0.546 -0.556 -1.376 -1.355 0.75 -0.762 -0.466 -0.459 -0.751 0.762 -3.59 -3.534zm3.044 4.089l-1.465 1.488 -1.386 -4.264 0.016 -0.015 2.835 2.791z"/>
   <path id="_28" class="fil2" d="M38.62 27.154c-0.735,-0.792 -2.651,-2.842 -4.235,-1.371 -1.72,1.595 0.754,4.004 1.052,4.323 0.593,0.641 2.635,2.856 4.233,1.373 1.615,-1.498 -0.344,-3.564 -1.05,-4.325zm-2.613 2.422c-0.479,-0.518 -2.258,-2.311 -1.177,-3.315 0.55,-0.509 1.417,-0.52 3.219,1.423 1.865,2.01 1.679,2.848 1.176,3.315 -1.034,0.96 -2.567,-0.721 -3.218,-1.423z"/>
   <path id="_29" class="fil2" d="M72.742 11.032c-0.273,-0.917 -0.036,-1.636 0.402,-2.435l0.352 -0.638c0.495,-0.894 1.131,-1.852 0.766,-2.911 -0.368,-1.072 -1.326,-1.456 -2.366,-1.098 -1.268,0.436 -1.647,1.567 -1.304,2.789l0.736 -0.253c-0.223,-0.78 -0.093,-1.615 0.771,-1.914 0.668,-0.23 1.202,0.081 1.43,0.738 0.274,0.797 -0.374,1.822 -0.771,2.485 -0.782,1.336 -1.183,2.243 -0.649,3.796l0.109 0.314 3.959 -1.363 -0.214 -0.62 -3.221 1.11z"/>
   <polygon id="_30" class="fil2" points="76.135,2.695 76.302,3.327 79.375,2.512 78.472,9.814 79.286,9.598 80.193,1.619 "/>
   <path id="_31" class="fil2" d="M87.554 3.794c-0.215,-1.059 -0.783,-3.806 -2.902,-3.376 -2.302,0.468 -1.441,3.813 -1.354,4.24 0.174,0.857 0.764,3.812 2.902,3.377 2.159,-0.439 1.561,-3.222 1.354,-4.241zm-3.493 0.71c-0.14,-0.694 -0.725,-3.149 0.722,-3.445 0.731,-0.149 1.48,0.294 2.008,2.889 0.545,2.689 -0.049,3.308 -0.72,3.445 -1.386,0.281 -1.818,-1.953 -2.01,-2.889z"/>
   <path id="_32" class="fil2" d="M126.422 4.131c1.102,0.111 1.842,0.86 1.612,2.034 -0.177,0.907 -0.929,1.331 -1.816,1.156 -0.794,-0.156 -1.152,-0.703 -1.322,-1.457l-0.752 0.267c0.345,0.945 0.888,1.624 1.919,1.827 1.324,0.26 2.49,-0.39 2.757,-1.746 0.177,-0.908 -0.181,-1.666 -0.928,-2.182 0.641,-0.246 1.144,-0.698 1.28,-1.391 0.212,-1.08 -0.501,-2.088 -1.581,-2.301 -0.938,-0.185 -1.793,0.177 -2.383,0.918l0.571 0.494c0.35,-0.492 0.972,-0.911 1.603,-0.786 0.684,0.133 1.179,0.74 1.037,1.464 -0.172,0.876 -1.053,1.265 -1.87,1.06l-0.127 0.643z"/>
   <path id="_33" class="fil2" d="M135.283 6.04c0.256,-1.05 0.911,-3.778 -1.188,-4.289 -2.281,-0.557 -2.928,2.836 -3.031,3.26 -0.207,0.848 -0.931,3.771 1.188,4.29 2.14,0.521 2.785,-2.252 3.031,-3.261zm-3.461 -0.844c0.167,-0.687 0.684,-3.159 2.117,-2.809 0.728,0.176 1.216,0.895 0.587,3.469 -0.65,2.664 -1.453,2.971 -2.118,2.808 -1.373,-0.335 -0.814,-2.541 -0.586,-3.468z"/>
   <path id="_34" class="fil2" d="M141.642 8.189c0.365,-1.016 1.305,-3.659 -0.728,-4.392 -2.21,-0.794 -3.211,2.511 -3.36,2.921 -0.294,0.822 -1.325,3.654 0.728,4.392 2.072,0.747 3.007,-1.944 3.36,-2.921zm-3.353 -1.206c0.238,-0.665 1.015,-3.069 2.404,-2.569 0.703,0.252 1.112,1.019 0.214,3.512 -0.928,2.581 -1.757,2.8 -2.404,2.569 -1.328,-0.479 -0.539,-2.614 -0.214,-3.512z"/>
   <path id="_35" class="fil2" d="M175.119 27.732c0.891,0.656 1.147,1.678 0.35,2.57 -0.616,0.689 -1.476,0.672 -2.151,0.07 -0.604,-0.539 -0.633,-1.192 -0.395,-1.926l-0.782 -0.157c-0.186,0.99 -0.065,1.852 0.718,2.551 1.007,0.899 2.341,0.935 3.262,-0.097 0.615,-0.688 0.692,-1.524 0.315,-2.349 0.676,0.117 1.338,-0.018 1.809,-0.544 0.733,-0.822 0.635,-2.052 -0.186,-2.785 -0.713,-0.636 -1.633,-0.762 -2.519,-0.425l0.24 0.715c0.552,-0.244 1.3,-0.286 1.781,0.143 0.518,0.463 0.636,1.236 0.144,1.787 -0.595,0.666 -1.55,0.551 -2.15,-0.042l-0.436 0.489z"/>
   <path id="_36" class="fil2" d="M179.836 32.109c0.854,0.702 1.056,1.737 0.215,2.584 -0.651,0.657 -1.511,0.594 -2.153,-0.043 -0.575,-0.572 -0.57,-1.224 -0.293,-1.946l-0.773 -0.194c-0.239,0.976 -0.161,1.843 0.584,2.582 0.958,0.953 2.287,1.057 3.262,0.076 0.65,-0.655 0.772,-1.486 0.438,-2.33 0.669,0.152 1.336,0.054 1.835,-0.446 0.776,-0.783 0.741,-2.016 -0.04,-2.792 -0.678,-0.673 -1.59,-0.847 -2.492,-0.557l0.201 0.726c0.564,-0.214 1.315,-0.218 1.771,0.236 0.495,0.492 0.571,1.27 0.051,1.793 -0.629,0.634 -1.579,0.469 -2.146,-0.153l-0.46 0.464z"/>
   <path id="_37" class="fil2" d="M186.113 38.68c0.792,-0.735 2.842,-2.651 1.371,-4.235 -1.596,-1.721 -4.005,0.754 -4.323,1.051 -0.642,0.594 -2.856,2.636 -1.373,4.233 1.498,1.615 3.563,-0.344 4.325,-1.049zm-2.423 -2.614c0.519,-0.479 2.312,-2.258 3.316,-1.177 0.508,0.55 0.52,1.418 -1.423,3.219 -2.01,1.865 -2.848,1.679 -3.315,1.177 -0.961,-1.035 0.72,-2.568 1.422,-3.219z"/>
   <path id="_38" class="fil2" d="M209.508 87.557c1.058,-0.223 3.8,-0.809 3.357,-2.923 -0.482,-2.298 -3.823,-1.418 -4.25,-1.328 -0.854,0.18 -3.805,0.788 -3.357,2.924 0.453,2.156 3.233,1.54 4.25,1.327zm-0.733 -3.488c0.693,-0.145 3.146,-0.744 3.449,0.7 0.153,0.731 -0.283,1.481 -2.876,2.026 -2.685,0.563 -3.308,-0.029 -3.449,-0.7 -0.289,-1.383 1.941,-1.831 2.876,-2.026z"/>
   <g>
    <rect class="fil3" transform="matrix(0.652098 -0.452472 -0.377664 -0.544286 57.6332 38.4633)" width="1.588" height="15.196"/>
    <rect class="fil3" transform="matrix(0.56293 -0.559529 -0.467022 -0.46986 46.5266 48.0333)" width="1.588" height="15.196"/>
    <rect class="fil3" transform="matrix(0.456671 -0.649164 -0.541838 -0.381169 37.2625 59.3991)" width="1.588" height="15.196"/>
    <rect class="fil3" transform="matrix(0.337301 -0.718464 -0.59968 -0.281535 30.1117 72.2079)" width="1.588" height="15.196"/>
    <rect class="fil3" transform="matrix(0.208189 -0.765911 -0.639283 -0.173769 25.2811 86.0628)" width="1.588" height="15.196"/>
    <rect class="fil3" transform="matrix(0.0723507 -0.790397 -0.65972 -0.060389 22.9188 100.541)" width="1.588" height="15.196"/>
    <rect class="fil3" transform="matrix(-0.0666643 -0.790897 -0.660138 0.0556427 23.1107 115.203)" width="1.588" height="15.196"/>
    <rect class="fil3" transform="matrix(-0.203937 -0.767054 -0.640237 0.17022 25.8627 129.603)" width="1.588" height="15.196"/>
    <rect class="fil3" transform="matrix(-0.333199 -0.720375 -0.601275 0.278111 31.0814 143.318)" width="1.588" height="15.196"/>
    <rect class="fil3" transform="matrix(-0.452472 -0.652098 -0.544286 0.377664 38.5779 155.932)" width="1.588" height="15.196"/>
    <rect class="fil3" transform="matrix(-0.559529 -0.56293 -0.46986 0.467022 48.148 167.038)" width="1.588" height="15.196"/>
    <rect class="fil3" transform="matrix(-0.649164 -0.456671 -0.381169 0.541838 59.5138 176.302)" width="1.588" height="15.196"/>
    <rect class="fil3" transform="matrix(-0.718464 -0.337301 -0.281535 0.59968 72.3226 183.453)" width="1.588" height="15.196"/>
    <rect class="fil3" transform="matrix(-0.765911 -0.208189 -0.173769 0.639283 86.1774 188.284)" width="1.588" height="15.196"/>
    <rect class="fil3" transform="matrix(-0.790397 -0.0723507 -0.060389 0.65972 100.656 190.646)" width="1.588" height="15.196"/>
    <rect class="fil3" transform="matrix(-0.790897 0.0666643 0.0556427 0.660138 115.317 190.454)" width="1.588" height="15.196"/>
    <rect class="fil3" transform="matrix(-0.767054 0.203937 0.17022 0.640237 129.718 187.702)" width="1.588" height="15.196"/>
    <rect class="fil3" transform="matrix(-0.720375 0.333199 0.278111 0.601275 143.432 182.484)" width="1.588" height="15.196"/>
    <rect class="fil3" transform="matrix(-0.652098 0.452472 0.377664 0.544286 156.046 174.987)" width="1.588" height="15.196"/>
    <rect class="fil3" transform="matrix(-0.56293 0.559529 0.467022 0.46986 167.153 165.417)" width="1.588" height="15.196"/>
    <rect class="fil3" transform="matrix(-0.456671 0.649164 0.541838 0.381169 176.417 154.051)" width="1.588" height="15.196"/>
    <rect class="fil3" transform="matrix(-0.337301 0.718464 0.59968 0.281535 183.568 141.242)" width="1.588" height="15.196"/>
    <rect class="fil3" transform="matrix(-0.208189 0.765911 0.639283 0.173769 188.399 127.387)" width="1.588" height="15.196"/>
    <rect class="fil3" transform="matrix(-0.0723507 0.790397 0.65972 0.060389 190.761 112.909)" width="1.588" height="15.196"/>
    <rect class="fil3" transform="matrix(0.0666643 0.790897 0.660138 -0.0556427 190.569 98.2475)" width="1.588" height="15.196"/>
    <rect class="fil3" transform="matrix(0.203937 0.767054 0.640237 -0.17022 187.817 83.8472)" width="1.588" height="15.196"/>
    <rect class="fil3" transform="matrix(0.333199 0.720375 0.601275 -0.278111 182.598 70.1328)" width="1.588" height="15.196"/>
    <rect class="fil3" transform="matrix(0.452472 0.652098 0.544286 -0.377664 175.102 57.5185)" width="1.588" height="15.196"/>
    <rect class="fil3" transform="matrix(0.559529 0.56293 0.46986 -0.467022 165.532 46.412)" width="1.588" height="15.196"/>
    <rect class="fil3" transform="matrix(0.649164 0.456671 0.381169 -0.541838 154.166 37.1479)" width="1.588" height="15.196"/>
    <rect class="fil3" transform="matrix(0.718464 0.337301 0.281535 -0.59968 141.357 29.9971)" width="1.588" height="15.196"/>
    <rect class="fil3" transform="matrix(0.765911 0.208189 0.173769 -0.639283 127.502 25.1664)" width="1.588" height="15.196"/>
    <rect class="fil3" transform="matrix(0.790397 0.0723507 0.060389 -0.65972 113.024 22.8042)" width="1.588" height="15.196"/>
    <rect class="fil3" transform="matrix(0.790897 -0.0666643 -0.0556427 -0.660138 98.3621 22.9961)" width="1.588" height="15.196"/>
    <rect class="fil3" transform="matrix(0.767054 -0.203937 -0.17022 -0.640237 83.9619 25.7481)" width="1.588" height="15.196"/>
   </g>
   <g>
    <g>
     <polygon class="fil1" points="57.633,38.463 58.668,37.745 52.929,29.474 51.894,30.192 "/>
     <path id="_1_37" class="fil2" d="M58.487 37.483l0.442 0.081 -0.079 0.443 -1.036 0.718 -0.362 -0.523 1.035 -0.719zm0.442 0.081l0.181 0.262 -0.26 0.181 0.079 -0.443zm-6.26 -7.91l0.079 -0.442 0.441 0.081 5.74 8.271 -0.521 0.362 -5.739 -8.272zm0.079 -0.442l0.26 -0.18 0.181 0.261 -0.441 -0.081zm-0.673 1.242l-0.441 -0.081 0.078 -0.443 1.036 -0.718 0.363 0.524 -1.036 0.718zm-0.441 -0.081l-0.182 -0.262 0.26 -0.181 -0.078 0.443zm6.259 7.91l-0.079 0.442 -0.441 -0.081 -5.739 -8.271 0.52 -0.361 5.739 8.271zm-0.079 0.442l-0.26 0.18 -0.181 -0.261 0.441 0.081z"/>
    </g>
    <g>
     <polygon class="fil1" points="46.527,48.033 47.42,47.145 40.323,40.005 39.43,40.893 "/>
     <path id="_1_38" class="fil2" d="M47.196 46.919l0.449 0.003 0 0.449 -0.894 0.888 -0.449 -0.452 0.894 -0.888zm0.449 0.003l0.224 0.225 -0.224 0.224 0 -0.449zm-7.546 -6.694l0 -0.449 0.449 0.003 7.097 7.14 -0.449 0.446 -7.097 -7.14zm0 -0.449l0.224 -0.223 0.225 0.226 -0.449 -0.003zm-0.445 1.34l-0.449 -0.003 0 -0.449 0.894 -0.888 0.449 0.452 -0.894 0.888zm-0.449 -0.003l-0.224 -0.225 0.224 -0.224 0 0.449zm7.546 6.694l0 0.449 -0.449 -0.003 -7.097 -7.14 0.449 -0.446 7.097 7.14zm0 0.449l-0.224 0.223 -0.225 -0.226 0.449 0.003z"/>
    </g>
    <g>
     <polygon class="fil1" points="37.262,59.399 37.987,58.368 29.753,52.576 29.028,53.607 "/>
     <path id="_1_39" class="fil2" d="M37.727 58.185l0.443 -0.075 0.078 0.442 -0.725 1.03 -0.521 -0.366 0.725 -1.031zm0.443 -0.075l0.26 0.183 -0.182 0.259 -0.078 -0.442zm-8.599 -5.275l-0.078 -0.442 0.443 -0.076 8.234 5.793 -0.365 0.517 -8.234 -5.792zm-0.078 -0.442l0.182 -0.259 0.261 0.183 -0.443 0.076zm-0.204 1.397l-0.443 0.076 -0.078 -0.443 0.725 -1.03 0.521 0.367 -0.725 1.03zm-0.443 0.076l-0.26 -0.184 0.182 -0.259 0.078 0.443zm8.599 5.274l0.078 0.442 -0.443 0.076 -8.234 -5.792 0.365 -0.518 8.234 5.792zm0.078 0.442l-0.182 0.259 -0.261 -0.183 0.443 -0.076z"/>
    </g>
    <g>
     <polygon class="fil1" points="30.111,72.208 30.647,71.067 21.534,66.789 20.999,67.93 "/>
     <path id="_1_40" class="fil2" d="M30.359 70.932l0.423 -0.151 0.153 0.422 -0.536 1.141 -0.576 -0.271 0.536 -1.141zm0.423 -0.151l0.288 0.135 -0.135 0.287 -0.153 -0.422zm-9.382 -3.706l-0.154 -0.421 0.423 -0.151 9.113 4.278 -0.269 0.573 -9.113 -4.279zm-0.154 -0.421l0.135 -0.287 0.288 0.136 -0.423 0.151zm0.041 1.411l-0.423 0.151 -0.153 -0.422 0.535 -1.14 0.576 0.27 -0.535 1.141zm-0.423 0.151l-0.288 -0.135 0.135 -0.287 0.153 0.422zm9.382 3.706l0.153 0.422 -0.422 0.151 -9.113 -4.279 0.269 -0.573 9.113 4.279zm0.153 0.422l-0.134 0.286 -0.288 -0.135 0.422 -0.151z"/>
    </g>
    <g>
     <polygon class="fil1" points="25.281,86.063 25.612,84.847 15.897,82.206 15.566,83.422 "/>
     <path id="_1_41" class="fil2" d="M25.304 84.763l0.391 -0.222 0.224 0.389 -0.331 1.216 -0.614 -0.167 0.33 -1.216zm0.391 -0.222l0.307 0.084 -0.083 0.305 -0.224 -0.389zm-9.881 -2.029l-0.225 -0.389 0.391 -0.222 9.715 2.64 -0.167 0.611 -9.714 -2.64zm-0.225 -0.389l0.084 -0.306 0.307 0.084 -0.391 0.222zm0.284 1.383l-0.39 0.222 -0.224 -0.389 0.33 -1.216 0.615 0.167 -0.331 1.216zm-0.39 0.222l-0.307 -0.084 0.083 -0.305 0.224 0.389zm9.881 2.029l0.224 0.389 -0.39 0.223 -9.715 -2.641 0.166 -0.611 9.715 2.64zm0.224 0.389l-0.083 0.306 -0.307 -0.083 0.39 -0.223z"/>
    </g>
    <g>
     <polygon class="fil1" points="22.919,100.541 23.034,99.286 13.008,98.369 12.893,99.623 "/>
     <path id="_1_42" class="fil2" d="M22.716 99.257l0.346 -0.286 0.289 0.344 -0.115 1.255 -0.635 -0.058 0.115 -1.255zm0.346 -0.286l0.318 0.029 -0.029 0.315 -0.289 -0.344zm-10.082 -0.287l-0.289 -0.345 0.346 -0.286 10.025 0.918 -0.057 0.63 -10.025 -0.917zm-0.289 -0.345l0.029 -0.315 0.317 0.029 -0.346 0.286zm0.519 1.314l-0.346 0.286 -0.288 -0.345 0.115 -1.255 0.635 0.059 -0.116 1.255zm-0.346 0.286l-0.317 -0.03 0.029 -0.315 0.288 0.345zm10.083 0.287l0.289 0.344 -0.346 0.286 -10.026 -0.917 0.058 -0.631 10.025 0.918zm0.289 0.344l-0.029 0.315 -0.317 -0.029 0.346 -0.286z"/>
    </g>
    <g>
     <polygon class="fil1" points="23.111,115.203 23.005,113.947 12.973,114.793 13.079,116.049 "/>
     <path id="_1_43" class="fil2" d="M22.688 113.974l0.29 -0.342 0.344 0.288 0.106 1.256 -0.634 0.054 -0.106 -1.256zm0.29 -0.342l0.317 -0.027 0.027 0.315 -0.344 -0.288zm-9.978 1.477l-0.344 -0.289 0.29 -0.343 10.032 -0.845 0.054 0.631 -10.032 0.846zm-0.344 -0.289l-0.027 -0.316 0.317 -0.027 -0.29 0.343zm0.74 1.202l-0.29 0.342 -0.344 -0.289 -0.106 -1.255 0.634 -0.054 0.106 1.256zm-0.29 0.342l-0.317 0.027 -0.027 -0.316 0.344 0.289zm9.978 -1.477l0.344 0.289 -0.291 0.342 -10.031 0.846 -0.054 -0.631 10.032 -0.846zm0.344 0.289l0.027 0.316 -0.318 0.026 0.291 -0.342z"/>
    </g>
    <g>
     <polygon class="fil1" points="25.862,129.603 25.539,128.385 15.81,130.972 16.133,132.19 "/>
     <path id="_1_44" class="fil2" d="M25.231 128.467l0.226 -0.388 0.389 0.224 0.324 1.218 -0.615 0.164 -0.324 -1.218zm0.226 -0.388l0.308 -0.082 0.081 0.306 -0.389 -0.224zm-9.566 3.199l-0.389 -0.224 0.226 -0.388 9.729 -2.587 0.163 0.612 -9.729 2.587zm-0.389 -0.224l-0.082 -0.306 0.308 -0.082 -0.226 0.388zm0.939 1.054l-0.226 0.388 -0.389 -0.224 -0.324 -1.218 0.615 -0.164 0.324 1.218zm-0.226 0.388l-0.308 0.082 -0.081 -0.306 0.389 0.224zm9.566 -3.199l0.389 0.224 -0.226 0.388 -9.729 2.587 -0.163 -0.612 9.729 -2.587zm0.389 0.224l0.082 0.306 -0.308 0.082 0.226 -0.388z"/>
    </g>
    <g>
     <polygon class="fil1" points="31.081,143.318 30.552,142.174 21.415,146.4 21.944,147.544 "/>
     <path id="_1_45" class="fil2" d="M30.263 142.308l0.156 -0.421 0.422 0.153 0.529 1.144 -0.577 0.267 -0.53 -1.143zm0.156 -0.421l0.289 -0.134 0.133 0.287 -0.422 -0.153zm-8.871 4.8l-0.422 -0.153 0.156 -0.421 9.137 -4.226 0.266 0.574 -9.137 4.226zm-0.422 -0.153l-0.133 -0.288 0.289 -0.133 -0.156 0.421zm1.107 0.876l-0.156 0.421 -0.422 -0.153 -0.529 -1.144 0.578 -0.268 0.529 1.144zm-0.156 0.421l-0.289 0.134 -0.133 -0.287 0.422 0.153zm8.871 -4.801l0.422 0.154 -0.156 0.421 -9.137 4.226 -0.266 -0.574 9.137 -4.227zm0.422 0.154l0.133 0.287 -0.289 0.134 0.156 -0.421z"/>
    </g>
    <g>
     <polygon class="fil1" points="38.578,155.932 37.86,154.896 29.589,160.636 30.307,161.671 "/>
     <path id="_1_46" class="fil2" d="M37.598 155.078l0.081 -0.442 0.442 0.079 0.719 1.036 -0.524 0.362 -0.718 -1.035zm0.081 -0.442l0.262 -0.181 0.18 0.26 -0.442 -0.079zm-7.91 6.26l-0.442 -0.079 0.081 -0.441 8.271 -5.74 0.361 0.521 -8.271 5.739zm-0.442 -0.079l-0.18 -0.26 0.261 -0.181 -0.081 0.441zm1.241 0.673l-0.081 0.441 -0.442 -0.079 -0.718 -1.035 0.523 -0.363 0.718 1.036zm-0.081 0.441l-0.261 0.182 -0.181 -0.261 0.442 0.079zm7.91 -6.259l0.443 0.079 -0.082 0.441 -8.271 5.739 -0.361 -0.52 8.271 -5.739zm0.443 0.079l0.18 0.26 -0.262 0.181 0.082 -0.441z"/>
    </g>
    <g>
     <polygon class="fil1" points="48.148,167.038 47.26,166.145 40.12,173.242 41.008,174.135 "/>
     <path id="_1_47" class="fil2" d="M47.034 166.369l0.002 -0.449 0.449 0 0.888 0.894 -0.451 0.449 -0.888 -0.894zm0.002 -0.449l0.226 -0.224 0.223 0.224 -0.449 0zm-6.693 7.546l-0.449 0 0.002 -0.449 7.14 -7.097 0.447 0.449 -7.14 7.097zm-0.449 0l-0.223 -0.224 0.225 -0.225 -0.002 0.449zm1.339 0.445l-0.002 0.449 -0.449 0 -0.888 -0.894 0.451 -0.449 0.888 0.894zm-0.002 0.449l-0.226 0.224 -0.223 -0.224 0.449 0zm6.693 -7.546l0.449 0 -0.002 0.449 -7.14 7.097 -0.447 -0.449 7.14 -7.097zm0.449 0l0.224 0.224 -0.226 0.225 0.002 -0.449z"/>
    </g>
    <g>
     <polygon class="fil1" points="59.514,176.303 58.483,175.577 52.691,183.811 53.722,184.537 "/>
     <path id="_1_48" class="fil2" d="M58.3 175.838l-0.076 -0.443 0.442 -0.078 1.031 0.725 -0.367 0.521 -1.03 -0.725zm-0.076 -0.443l0.184 -0.26 0.258 0.182 -0.442 0.078zm-5.274 8.599l-0.443 0.078 -0.075 -0.443 5.792 -8.234 0.518 0.365 -5.792 8.234zm-0.443 0.078l-0.258 -0.182 0.183 -0.261 0.075 0.443zm1.398 0.204l0.075 0.443 -0.442 0.078 -1.031 -0.725 0.367 -0.521 1.031 0.725zm0.075 0.443l-0.183 0.26 -0.259 -0.182 0.442 -0.078zm5.275 -8.599l0.442 -0.078 0.076 0.443 -5.793 8.234 -0.517 -0.365 5.792 -8.234zm0.442 -0.078l0.259 0.182 -0.183 0.261 -0.076 -0.443z"/>
    </g>
    <g>
     <polygon class="fil1" points="72.322,183.454 71.182,182.918 66.904,192.031 68.044,192.566 "/>
     <path id="_1_49" class="fil2" d="M71.046 183.206l-0.151 -0.423 0.422 -0.153 1.141 0.535 -0.271 0.577 -1.141 -0.536zm-0.151 -0.423l0.135 -0.288 0.287 0.135 -0.422 0.153zm-3.705 9.382l-0.422 0.154 -0.151 -0.423 4.278 -9.113 0.573 0.269 -4.278 9.113zm-0.422 0.154l-0.286 -0.135 0.135 -0.288 0.151 0.423zm1.412 -0.041l0.151 0.423 -0.422 0.153 -1.141 -0.535 0.271 -0.576 1.141 0.535zm0.151 0.423l-0.135 0.288 -0.287 -0.135 0.422 -0.153zm3.705 -9.382l0.422 -0.154 0.151 0.423 -4.278 9.113 -0.573 -0.269 4.278 -9.113zm0.422 -0.154l0.286 0.135 -0.135 0.288 -0.151 -0.423z"/>
    </g>
    <g>
     <polygon class="fil1" points="86.178,188.284 84.962,187.953 82.321,197.668 83.537,197.999 "/>
     <path id="_1_50" class="fil2" d="M84.878 188.261l-0.222 -0.391 0.389 -0.224 1.216 0.331 -0.167 0.614 -1.216 -0.33zm-0.222 -0.391l0.083 -0.307 0.306 0.083 -0.389 0.224zm-2.03 9.881l-0.389 0.225 -0.222 -0.391 2.641 -9.715 0.611 0.166 -2.641 9.715zm-0.389 0.225l-0.305 -0.084 0.083 -0.307 0.222 0.391zm1.383 -0.285l0.223 0.391 -0.39 0.224 -1.216 -0.33 0.167 -0.615 1.216 0.33zm0.223 0.391l-0.084 0.307 -0.306 -0.083 0.39 -0.224zm2.029 -9.881l0.389 -0.224 0.222 0.39 -2.64 9.715 -0.612 -0.166 2.641 -9.715zm0.389 -0.224l0.306 0.083 -0.084 0.307 -0.222 -0.39z"/>
    </g>
    <g>
     <polygon class="fil1" points="100.656,190.646 99.401,190.531 98.483,200.557 99.738,200.672 "/>
     <path id="_1_51" class="fil2" d="M99.372 190.849l-0.286 -0.346 0.344 -0.289 1.255 0.115 -0.059 0.635 -1.254 -0.115zm-0.286 -0.346l0.029 -0.318 0.315 0.029 -0.344 0.289zm-0.288 10.082l-0.344 0.289 -0.286 -0.346 0.918 -10.025 0.63 0.057 -0.918 10.025zm-0.344 0.289l-0.315 -0.029 0.029 -0.317 0.286 0.346zm1.313 -0.52l0.286 0.346 -0.344 0.289 -1.255 -0.115 0.058 -0.635 1.255 0.115zm0.286 0.346l-0.029 0.318 -0.315 -0.029 0.344 -0.289zm0.287 -10.082l0.345 -0.289 0.286 0.346 -0.918 10.025 -0.63 -0.057 0.917 -10.025zm0.345 -0.289l0.315 0.029 -0.029 0.317 -0.286 -0.346z"/>
    </g>
    <g>
     <polygon class="fil1" points="115.317,190.454 114.062,190.56 114.908,200.592 116.163,200.486 "/>
     <path id="_1_52" class="fil2" d="M114.089 190.877l-0.343 -0.29 0.289 -0.344 1.256 -0.106 0.053 0.634 -1.255 0.106zm-0.343 -0.29l-0.027 -0.317 0.316 -0.027 -0.289 0.344zm1.477 9.978l-0.289 0.344 -0.342 -0.29 -0.846 -10.032 0.631 -0.054 0.846 10.032zm-0.289 0.344l-0.315 0.027 -0.027 -0.317 0.342 0.29zm1.202 -0.74l0.343 0.29 -0.289 0.344 -1.256 0.106 -0.053 -0.634 1.255 -0.106zm0.343 0.29l0.027 0.317 -0.316 0.027 0.289 -0.344zm-1.477 -9.978l0.289 -0.344 0.342 0.29 0.846 10.032 -0.631 0.054 -0.846 -10.032zm0.289 -0.344l0.315 -0.027 0.027 0.317 -0.342 -0.29z"/>
    </g>
    <g>
     <polygon class="fil1" points="129.718,187.703 128.5,188.026 131.087,197.755 132.304,197.432 "/>
     <path id="_1_53" class="fil2" d="M128.582 188.334l-0.388 -0.226 0.224 -0.39 1.218 -0.323 0.164 0.615 -1.218 0.324zm-0.388 -0.226l-0.082 -0.308 0.306 -0.082 -0.224 0.39zm3.199 9.566l-0.224 0.389 -0.388 -0.226 -2.587 -9.729 0.612 -0.163 2.587 9.729zm-0.224 0.389l-0.306 0.081 -0.082 -0.307 0.388 0.226zm1.053 -0.939l0.388 0.226 -0.224 0.389 -1.217 0.324 -0.164 -0.615 1.217 -0.324zm0.388 0.226l0.082 0.308 -0.306 0.081 0.224 -0.389zm-3.198 -9.566l0.224 -0.389 0.388 0.226 2.586 9.729 -0.612 0.163 -2.586 -9.729zm0.224 -0.389l0.306 -0.082 0.082 0.308 -0.388 -0.226z"/>
    </g>
    <g>
     <polygon class="fil1" points="143.432,182.484 142.288,183.013 146.515,192.15 147.658,191.621 "/>
     <path id="_1_54" class="fil2" d="M142.422 183.302l-0.421 -0.156 0.154 -0.422 1.143 -0.529 0.268 0.577 -1.144 0.53zm-0.421 -0.156l-0.134 -0.289 0.288 -0.133 -0.154 0.422zm4.801 8.871l-0.153 0.422 -0.422 -0.156 -4.226 -9.137 0.575 -0.266 4.226 9.137zm-0.153 0.422l-0.288 0.133 -0.134 -0.289 0.422 0.156zm0.876 -1.107l0.421 0.156 -0.154 0.422 -1.143 0.529 -0.268 -0.578 1.144 -0.529zm0.421 0.156l0.134 0.289 -0.288 0.133 0.154 -0.422zm-4.801 -8.871l0.153 -0.422 0.421 0.156 4.227 9.137 -0.575 0.266 -4.226 -9.137zm0.153 -0.422l0.288 -0.133 0.133 0.289 -0.421 -0.156z"/>
    </g>
    <g>
     <polygon class="fil1" points="156.047,174.987 155.011,175.705 160.75,183.976 161.786,183.258 "/>
     <path id="_1_55" class="fil2" d="M155.193 175.967l-0.442 -0.081 0.079 -0.442 1.035 -0.719 0.363 0.524 -1.035 0.718zm-0.442 -0.081l-0.182 -0.262 0.261 -0.18 -0.079 0.442zm6.259 7.91l-0.078 0.442 -0.442 -0.081 -5.739 -8.271 0.52 -0.361 5.739 8.271zm-0.078 0.442l-0.26 0.18 -0.182 -0.261 0.442 0.081zm0.672 -1.242l0.442 0.082 -0.079 0.442 -1.035 0.718 -0.363 -0.523 1.035 -0.719zm0.442 0.082l0.182 0.261 -0.261 0.181 0.079 -0.442zm-6.259 -7.91l0.078 -0.443 0.442 0.081 5.739 8.272 -0.52 0.361 -5.739 -8.271zm0.078 -0.443l0.26 -0.18 0.182 0.261 -0.442 -0.081z"/>
    </g>
    <g>
     <polygon class="fil1" points="167.153,165.417 166.259,166.305 173.356,173.445 174.25,172.557 "/>
     <path id="_1_56" class="fil2" d="M166.484 166.531l-0.449 -0.002 0 -0.449 0.893 -0.889 0.449 0.452 -0.893 0.888zm-0.449 -0.002l-0.225 -0.226 0.225 -0.223 0 0.449zm7.546 6.693l0 0.449 -0.449 -0.002 -7.097 -7.14 0.449 -0.447 7.097 7.14zm0 0.449l-0.225 0.223 -0.224 -0.225 0.449 0.002zm0.444 -1.339l0.449 0.002 0 0.449 -0.893 0.888 -0.449 -0.451 0.893 -0.888zm0.449 0.002l0.225 0.226 -0.225 0.223 0 -0.449zm-7.546 -6.694l0 -0.449 0.449 0.003 7.097 7.14 -0.449 0.447 -7.097 -7.141zm0 -0.449l0.225 -0.223 0.224 0.226 -0.449 -0.003z"/>
    </g>
    <g>
     <polygon class="fil1" points="176.417,154.051 175.692,155.082 183.926,160.874 184.651,159.843 "/>
     <path id="_1_57" class="fil2" d="M175.953 155.265l-0.443 0.076 -0.078 -0.443 0.725 -1.03 0.521 0.367 -0.725 1.03zm-0.443 0.076l-0.26 -0.184 0.182 -0.259 0.078 0.443zm8.598 5.274l0.079 0.442 -0.443 0.076 -8.234 -5.792 0.364 -0.518 8.234 5.792zm0.079 0.442l-0.183 0.259 -0.26 -0.183 0.443 -0.076zm0.204 -1.397l0.442 -0.075 0.079 0.442 -0.725 1.03 -0.521 -0.366 0.725 -1.031zm0.442 -0.075l0.261 0.183 -0.182 0.259 -0.079 -0.442zm-8.598 -5.275l-0.078 -0.442 0.442 -0.076 8.234 5.793 -0.364 0.517 -8.234 -5.792zm-0.078 -0.442l0.182 -0.259 0.26 0.183 -0.442 0.076z"/>
    </g>
    <g>
     <polygon class="fil1" points="183.568,141.242 183.032,142.383 192.145,146.661 192.681,145.521 "/>
     <path id="_1_58" class="fil2" d="M183.32 142.519l-0.422 0.151 -0.154 -0.422 0.536 -1.141 0.576 0.271 -0.536 1.141zm-0.422 0.151l-0.288 -0.135 0.134 -0.287 0.154 0.422zm9.382 3.705l0.153 0.422 -0.422 0.151 -9.113 -4.278 0.269 -0.573 9.113 4.278zm0.153 0.422l-0.134 0.286 -0.288 -0.135 0.422 -0.151zm-0.04 -1.412l0.423 -0.151 0.153 0.422 -0.536 1.141 -0.576 -0.271 0.536 -1.141zm0.423 -0.151l0.288 0.136 -0.135 0.286 -0.153 -0.422zm-9.382 -3.705l-0.154 -0.422 0.423 -0.151 9.113 4.278 -0.27 0.573 -9.112 -4.278zm-0.154 -0.422l0.135 -0.287 0.288 0.136 -0.423 0.151z"/>
    </g>
    <g>
     <polygon class="fil1" points="188.398,127.387 188.068,128.603 197.783,131.244 198.113,130.028 "/>
     <path id="_1_59" class="fil2" d="M188.375 128.687l-0.39 0.222 -0.224 -0.389 0.33 -1.216 0.615 0.167 -0.331 1.216zm-0.39 0.222l-0.307 -0.083 0.083 -0.306 0.224 0.389zm9.881 2.029l0.224 0.39 -0.39 0.222 -9.715 -2.641 0.166 -0.611 9.715 2.64zm0.224 0.39l-0.083 0.305 -0.307 -0.083 0.39 -0.222zm-0.284 -1.383l0.39 -0.223 0.225 0.39 -0.331 1.216 -0.614 -0.167 0.33 -1.216zm0.39 -0.223l0.308 0.084 -0.083 0.306 -0.225 -0.39zm-9.881 -2.029l-0.224 -0.389 0.391 -0.222 9.714 2.64 -0.166 0.612 -9.715 -2.641zm-0.224 -0.389l0.083 -0.306 0.308 0.084 -0.391 0.222z"/>
    </g>
    <g>
     <polygon class="fil1" points="190.761,112.909 190.646,114.164 200.671,115.082 200.786,113.827 "/>
     <path id="_1_60" class="fil2" d="M190.963 114.193l-0.346 0.286 -0.288 -0.344 0.115 -1.255 0.634 0.058 -0.115 1.255zm-0.346 0.286l-0.317 -0.029 0.029 -0.315 0.288 0.344zm10.083 0.288l0.288 0.344 -0.345 0.286 -10.026 -0.918 0.058 -0.63 10.025 0.918zm0.288 0.344l-0.028 0.315 -0.317 -0.029 0.345 -0.286zm-0.519 -1.313l0.346 -0.286 0.289 0.344 -0.116 1.255 -0.634 -0.058 0.115 -1.255zm0.346 -0.286l0.317 0.029 -0.028 0.315 -0.289 -0.344zm-10.083 -0.287l-0.288 -0.345 0.346 -0.286 10.025 0.918 -0.057 0.63 -10.026 -0.917zm-0.288 -0.345l0.029 -0.315 0.317 0.029 -0.346 0.286z"/>
    </g>
    <g>
     <polygon class="fil1" points="190.569,98.247 190.675,99.503 200.706,98.657 200.601,97.402 "/>
     <path id="_1_61" class="fil2" d="M190.992 99.476l-0.29 0.343 -0.344 -0.289 -0.106 -1.256 0.634 -0.053 0.106 1.255zm-0.29 0.343l-0.318 0.026 -0.026 -0.315 0.344 0.289zm9.978 -1.477l0.344 0.289 -0.291 0.342 -10.031 0.846 -0.054 -0.632 10.032 -0.845zm0.344 0.289l0.026 0.315 -0.317 0.027 0.291 -0.342zm-0.741 -1.202l0.291 -0.343 0.344 0.289 0.106 1.256 -0.635 0.053 -0.106 -1.255zm0.291 -0.343l0.317 -0.027 0.027 0.316 -0.344 -0.289zm-9.978 1.477l-0.344 -0.289 0.29 -0.342 10.032 -0.846 0.053 0.631 -10.031 0.846zm-0.344 -0.289l-0.027 -0.315 0.317 -0.027 -0.29 0.342z"/>
    </g>
    <g>
     <polygon class="fil1" points="187.817,83.847 188.141,85.065 197.87,82.478 197.546,81.261 "/>
     <path id="_1_62" class="fil2" d="M188.448 84.983l-0.226 0.388 -0.389 -0.224 -0.323 -1.218 0.615 -0.164 0.323 1.218zm-0.226 0.388l-0.307 0.082 -0.082 -0.306 0.389 0.224zm9.567 -3.199l0.389 0.224 -0.226 0.388 -9.73 2.587 -0.163 -0.612 9.73 -2.587zm0.389 0.224l0.081 0.306 -0.307 0.082 0.226 -0.388zm-0.939 -1.053l0.226 -0.388 0.389 0.224 0.324 1.217 -0.616 0.164 -0.323 -1.217zm0.226 -0.388l0.308 -0.082 0.081 0.306 -0.389 -0.224zm-9.566 3.198l-0.389 -0.224 0.226 -0.388 9.729 -2.586 0.163 0.612 -9.729 2.586zm-0.389 -0.224l-0.082 -0.306 0.308 -0.082 -0.226 0.388z"/>
    </g>
    <g>
     <polygon class="fil1" points="182.598,70.133 183.127,71.276 192.264,67.05 191.735,65.906 "/>
     <path id="_1_63" class="fil2" d="M183.416 71.143l-0.156 0.421 -0.422 -0.154 -0.529 -1.143 0.578 -0.268 0.529 1.144zm-0.156 0.421l-0.289 0.134 -0.133 -0.288 0.422 0.154zm8.871 -4.801l0.422 0.153 -0.156 0.421 -9.137 4.227 -0.266 -0.575 9.137 -4.226zm0.422 0.153l0.133 0.288 -0.289 0.133 0.156 -0.421zm-1.106 -0.876l0.155 -0.421 0.422 0.154 0.529 1.143 -0.577 0.268 -0.529 -1.144zm0.155 -0.421l0.29 -0.134 0.132 0.288 -0.422 -0.154zm-8.871 4.801l-0.422 -0.153 0.156 -0.422 9.137 -4.226 0.266 0.575 -9.137 4.226zm-0.422 -0.153l-0.133 -0.288 0.289 -0.134 -0.156 0.422z"/>
    </g>
    <g>
     <polygon class="fil1" points="175.102,57.518 175.82,58.554 184.091,52.815 183.373,51.779 "/>
     <path id="_1_64" class="fil2" d="M176.082 58.372l-0.081 0.442 -0.443 -0.079 -0.718 -1.035 0.523 -0.363 0.719 1.035zm-0.081 0.442l-0.262 0.182 -0.181 -0.261 0.443 0.079zm7.91 -6.259l0.442 0.078 -0.081 0.442 -8.271 5.739 -0.362 -0.52 8.272 -5.739zm0.442 0.078l0.18 0.26 -0.261 0.182 0.081 -0.442zm-1.242 -0.672l0.081 -0.442 0.442 0.079 0.719 1.035 -0.524 0.363 -0.718 -1.035zm0.081 -0.442l0.262 -0.182 0.18 0.261 -0.442 -0.079zm-7.91 6.259l-0.442 -0.078 0.081 -0.442 8.271 -5.739 0.361 0.52 -8.271 5.739zm-0.442 -0.078l-0.18 -0.26 0.261 -0.182 -0.081 0.442z"/>
    </g>
    <g>
     <polygon class="fil1" points="165.532,46.412 166.42,47.306 173.56,40.209 172.672,39.315 "/>
     <path id="_1_65" class="fil2" d="M166.646 47.081l-0.003 0.449 -0.449 0 -0.888 -0.894 0.452 -0.449 0.888 0.894zm-0.003 0.449l-0.226 0.225 -0.223 -0.225 0.449 0zm6.694 -7.546l0.449 0 -0.003 0.449 -7.14 7.097 -0.446 -0.449 7.14 -7.097zm0.449 0l0.223 0.225 -0.226 0.224 0.003 -0.449zm-1.34 -0.445l0.003 -0.449 0.449 0 0.888 0.894 -0.452 0.449 -0.888 -0.894zm0.003 -0.449l0.225 -0.224 0.224 0.224 -0.449 0zm-6.694 7.546l-0.449 0 0.003 -0.449 7.14 -7.097 0.446 0.449 -7.14 7.097zm-0.449 0l-0.223 -0.224 0.226 -0.225 -0.003 0.449z"/>
    </g>
    <g>
     <polygon class="fil1" points="154.166,37.148 155.197,37.873 160.989,29.639 159.958,28.914 "/>
     <path id="_1_66" class="fil2" d="M155.38 37.612l0.075 0.443 -0.442 0.078 -1.031 -0.725 0.367 -0.521 1.031 0.725zm0.075 0.443l-0.183 0.26 -0.259 -0.182 0.442 -0.078zm5.275 -8.598l0.442 -0.079 0.076 0.443 -5.793 8.234 -0.517 -0.364 5.792 -8.234zm0.442 -0.079l0.259 0.183 -0.183 0.26 -0.076 -0.443zm-1.397 -0.204l-0.076 -0.442 0.442 -0.079 1.031 0.725 -0.367 0.521 -1.03 -0.725zm-0.076 -0.442l0.184 -0.261 0.258 0.182 -0.442 0.079zm-5.274 8.598l-0.443 0.078 -0.075 -0.442 5.792 -8.234 0.518 0.364 -5.792 8.234zm-0.443 0.078l-0.258 -0.182 0.183 -0.26 0.075 0.442z"/>
    </g>
    <g>
     <polygon class="fil1" points="141.357,29.997 142.498,30.533 146.776,21.42 145.635,20.884 "/>
     <path id="_1_67" class="fil2" d="M142.633 30.244l0.151 0.423 -0.422 0.154 -1.141 -0.536 0.271 -0.576 1.141 0.535zm0.151 0.423l-0.135 0.288 -0.287 -0.134 0.422 -0.154zm3.706 -9.382l0.421 -0.153 0.151 0.422 -4.278 9.113 -0.573 -0.269 4.279 -9.113zm0.421 -0.153l0.287 0.134 -0.136 0.288 -0.151 -0.422zm-1.411 0.04l-0.151 -0.423 0.422 -0.153 1.14 0.536 -0.27 0.576 -1.141 -0.536zm-0.151 -0.423l0.135 -0.288 0.287 0.135 -0.422 0.153zm-3.706 9.382l-0.422 0.154 -0.151 -0.423 4.279 -9.113 0.573 0.27 -4.279 9.112zm-0.422 0.154l-0.286 -0.135 0.135 -0.288 0.151 0.423z"/>
    </g>
    <g>
     <polygon class="fil1" points="127.502,25.166 128.718,25.497 131.359,15.782 130.143,15.452 "/>
     <path id="_1_68" class="fil2" d="M128.802 25.19l0.222 0.39 -0.389 0.224 -1.216 -0.331 0.167 -0.614 1.216 0.331zm0.222 0.39l-0.084 0.307 -0.305 -0.083 0.389 -0.224zm2.029 -9.881l0.389 -0.224 0.222 0.39 -2.64 9.715 -0.612 -0.166 2.641 -9.715zm0.389 -0.224l0.306 0.083 -0.084 0.307 -0.222 -0.39zm-1.383 0.284l-0.222 -0.39 0.389 -0.225 1.216 0.331 -0.167 0.614 -1.216 -0.33zm-0.222 -0.39l0.084 -0.308 0.305 0.083 -0.389 0.225zm-2.029 9.88l-0.389 0.224 -0.223 -0.39 2.641 -9.714 0.611 0.166 -2.64 9.714zm-0.389 0.224l-0.306 -0.083 0.083 -0.307 0.223 0.39z"/>
    </g>
    <g>
     <polygon class="fil1" points="113.024,22.804 114.279,22.919 115.196,12.894 113.942,12.779 "/>
     <path id="_1_69" class="fil2" d="M114.308 22.602l0.286 0.346 -0.344 0.288 -1.255 -0.115 0.058 -0.634 1.255 0.115zm0.286 0.346l-0.029 0.317 -0.315 -0.029 0.344 -0.288zm0.287 -10.083l0.345 -0.289 0.286 0.346 -0.918 10.026 -0.63 -0.058 0.917 -10.025zm0.345 -0.289l0.315 0.029 -0.029 0.317 -0.286 -0.346zm-1.314 0.52l-0.286 -0.346 0.345 -0.289 1.255 0.115 -0.059 0.635 -1.255 -0.115zm-0.286 -0.346l0.03 -0.317 0.315 0.028 -0.345 0.289zm-0.287 10.083l-0.344 0.288 -0.286 -0.346 0.917 -10.025 0.631 0.057 -0.918 10.026zm-0.344 0.288l-0.315 -0.029 0.029 -0.317 0.286 0.346z"/>
    </g>
    <g>
     <polygon class="fil1" points="98.362,22.996 99.618,22.89 98.772,12.859 97.516,12.964 "/>
     <path id="_1_70" class="fil2" d="M99.591 22.573l0.342 0.29 -0.288 0.344 -1.256 0.106 -0.054 -0.634 1.256 -0.106zm0.342 0.29l0.027 0.318 -0.315 0.026 0.288 -0.344zm-1.477 -9.978l0.289 -0.344 0.343 0.291 0.845 10.031 -0.631 0.054 -0.846 -10.032zm0.289 -0.344l0.316 -0.026 0.027 0.317 -0.343 -0.291zm-1.202 0.741l-0.342 -0.291 0.289 -0.344 1.255 -0.106 0.054 0.635 -1.256 0.106zm-0.342 -0.291l-0.027 -0.317 0.316 -0.027 -0.289 0.344zm1.477 9.978l-0.289 0.344 -0.342 -0.29 -0.846 -10.032 0.631 -0.053 0.846 10.031zm-0.289 0.344l-0.316 0.027 -0.026 -0.317 0.342 0.29z"/>
    </g>
    <g>
     <polygon class="fil1" points="83.962,25.748 85.18,25.424 82.593,15.695 81.375,16.018 "/>
     <path id="_1_71" class="fil2" d="M85.098 25.117l0.388 0.226 -0.224 0.389 -1.218 0.323 -0.164 -0.615 1.218 -0.323zm0.388 0.226l0.082 0.307 -0.306 0.082 0.224 -0.389zm-3.199 -9.567l0.224 -0.389 0.388 0.226 2.587 9.73 -0.612 0.163 -2.587 -9.73zm0.224 -0.389l0.306 -0.081 0.082 0.307 -0.388 -0.226zm-1.054 0.939l-0.388 -0.226 0.224 -0.389 1.218 -0.324 0.164 0.616 -1.218 0.323zm-0.388 -0.226l-0.082 -0.308 0.306 -0.081 -0.224 0.389zm3.199 9.566l-0.224 0.389 -0.388 -0.226 -2.587 -9.729 0.612 -0.163 2.587 9.729zm-0.224 0.389l-0.306 0.082 -0.082 -0.308 0.388 0.226z"/>
    </g>
   </g>
  </g>
 </g>
</svg>
